<?xml version="1.0" encoding="UTF-8" standalone="no"?>
<!-- Created with Inkscape (http://www.inkscape.org/) -->

<svg
   version="1.1"
   id="svg1"
   width="1147"
   height="1147"
   viewBox="0 0 1147 1147"
   sodipodi:docname="qr-code.svg"
   inkscape:version="1.3 (0e150ed6c4, 2023-07-21)"
   xmlns:inkscape="http://www.inkscape.org/namespaces/inkscape"
   xmlns:sodipodi="http://sodipodi.sourceforge.net/DTD/sodipodi-0.dtd"
   xmlns="http://www.w3.org/2000/svg"
   xmlns:svg="http://www.w3.org/2000/svg">
  <defs
     id="defs1" />
  <sodipodi:namedview
     id="namedview1"
     pagecolor="#ffffff"
     bordercolor="#000000"
     borderopacity="0.25"
     inkscape:showpageshadow="2"
     inkscape:pageopacity="0.0"
     inkscape:pagecheckerboard="0"
     inkscape:deskcolor="#d1d1d1"
     inkscape:zoom="0.70880558"
     inkscape:cx="573.5"
     inkscape:cy="573.5"
     inkscape:window-width="1920"
     inkscape:window-height="1009"
     inkscape:window-x="-8"
     inkscape:window-y="-8"
     inkscape:window-maximized="1"
     inkscape:current-layer="g1" />
  <g
     inkscape:groupmode="layer"
     inkscape:label="Image"
     id="g1">
    <path
       style="fill:#000000"
       d="M 62,976.5 V 868 H 170.5 279 V 976.5 1085 H 170.5 62 Z m 184,0 V 901 H 170.5 95 v 75.5 75.5 h 75.5 75.5 z m -122,0 V 930 h 46.5 46.5 v 46.5 46.5 H 170.5 124 Z m 186,93 V 1054 h 15.5 15.5 v -31 -31 H 325.5 310 V 976.5 961 H 325.5 341 V 945.5 930 H 325.5 310 V 914.5 899 h 31 31 V 883.5 868 H 341 310 V 852.5 837 H 325.5 341 V 806 775 H 325.5 310 V 790.5 806 H 294.5 279 V 821.5 837 H 263.5 248 V 821.5 806 H 263.5 279 V 790.5 775 H 263.5 248 V 759.5 744 H 263.5 279 V 759.5 775 H 294.5 310 V 759.5 744 H 325.5 341 V 713 682 H 310 279 V 697.5 713 H 263.5 248 V 697.5 682 H 263.5 279 V 666.5 651 H 263.5 248 V 635.5 620 H 263.5 279 V 604.5 589 H 263.5 248 V 573.5 558 H 263.5 279 V 542.5 527 H 263.5 248 V 511.5 496 h 31 31 V 465 434 H 294.5 279 V 449.5 465 H 263.5 248 V 449.5 434 H 232.5 217 V 449.5 465 H 201.5 186 V 480.5 496 H 170.5 155 v 15.5 15.5 h 31 31 V 542.5 558 H 186 155 V 542.5 527 H 139.5 124 v 31 31 H 108.5 93 V 573.5 558 H 77.5 62 V 496 434 H 77.5 93 V 449.5 465 H 108.5 124 V 480.5 496 H 139.5 155 V 465 434 H 139.5 124 V 418.5 403 H 139.5 155 V 418.5 434 H 170.5 186 V 387.5 341 H 170.5 155 V 356.5 372 H 139.5 124 V 356.5 341 H 139.5 155 V 325.5 310 H 170.5 186 V 325.5 341 H 201.5 217 V 325.5 310 h 31 31 V 325.5 341 H 294.5 310 V 325.5 310 H 325.5 341 V 294.5 279 H 325.5 310 V 248 217 H 325.5 341 V 201.5 186 H 356.5 372 V 201.5 217 H 356.5 341 v 31 31 H 356.5 372 V 263.5 248 H 387.5 403 V 201.5 155 H 372 341 V 139.5 124 H 356.5 372 V 108.5 93 H 356.5 341 V 77.5 62 H 387.5 434 V 77.5 93 h 15.5 15.5 v 31 31 H 480.5 496 V 139.5 124 H 511.5 527 V 108.5 93 H 511.5 496 V 77.5 62 H 542.5 589 V 77.5 93 H 604.5 620 V 139.5 186 H 604.5 589 V 201.5 217 H 573.5 558 V 201.5 186 H 542.5 527 V 170.5 155 H 511.5 496 v 15.5 15.5 h -31 -31 v 31 31 H 449.5 465 V 263.5 279 H 449.5 434 V 294.5 310 H 449.5 465 V 325.5 341 H 449.5 434 v 15.5 15.5 h 15.5 15.5 v 31 31 H 449.5 434 V 449.5 465 H 418.5 403 v 15.5 15.5 h 31 31 v 62 62 H 480.5 496 V 635.5 651 H 465 434 V 666.5 682 H 418.5 403 v 15.5 15.5 h 15.5 15.5 v 15.5 15.5 h 15.5 15.5 v -31 -31 h 31 31 V 666.5 651 H 542.5 558 V 604.5 558 H 542.5 527 V 542.5 527 H 511.5 496 V 511.5 496 H 511.5 527 V 480.5 465 h 31 31 V 480.5 496 H 558 527 V 511.5 527 H 542.5 558 V 542.5 558 H 573.5 589 V 542.5 527 H 635.5 682 V 511.5 496 h 31 31 V 480.5 465 H 728.5 713 V 449.5 434 H 682 651 V 403 372 H 666.5 682 V 356.5 341 H 666.5 651 V 310 279 H 635.5 620 V 294.5 310 H 604.5 589 V 294.5 279 H 573.5 558 V 263.5 248 H 573.5 589 V 263.5 279 H 604.5 620 V 248 217 H 635.5 651 V 201.5 186 h 15.5 15.5 v 15.5 15.5 h 15.5 15.5 v 31 31 H 728.5 744 V 263.5 248 H 759.5 775 V 294.5 341 H 759.5 744 v 15.5 15.5 h 15.5 15.5 v 31 31 H 821.5 868 V 403 372 H 852.5 837 V 387.5 403 H 821.5 806 V 372 341 H 821.5 837 V 325.5 310 H 821.5 806 v -31 -31 h 15.5 15.5 v 31 31 H 852.5 868 V 325.5 341 H 883.5 899 V 325.5 310 h 15.5 15.5 v 31 31 H 945.5 961 V 387.5 403 H 976.5 992 V 387.5 372 h 15.5 15.5 v 15.5 15.5 h 15.5 15.5 v -31 -31 h 15.5 15.5 V 418.5 496 H 1069.5 1054 V 542.5 589 H 1038.5 1023 V 496 403 H 1007.5 992 v 62 62 H 976.5 961 v 31 31 h 15.5 15.5 v 15.5 15.5 h 46.5 46.5 V 635.5 651 H 1069.5 1054 V 666.5 682 H 1038.5 1023 V 666.5 651 H 1007.5 992 V 635.5 620 H 976.5 961 V 604.5 589 H 945.5 930 V 604.5 620 H 914.5 899 v 15.5 15.5 h 15.5 15.5 v 15.5 15.5 h 15.5 15.5 v 15.5 15.5 h 62 62 v 31 31 H 1069.5 1054 V 759.5 744 H 1038.5 1023 V 759.5 775 H 1007.5 992 v 46.5 46.5 h 31 31 V 852.5 837 H 1038.5 1023 V 821.5 806 h 15.5 15.5 v 15.5 15.5 h 15.5 15.5 V 852.5 868 H 1069.5 1054 V 883.5 899 H 1007.5 961 v 15.5 15.5 h 15.5 15.5 v 15.5 15.5 h 31 31 v 15.5 15.5 h 15.5 15.5 v 15.5 15.5 H 1069.5 1054 V 1007.5 992 h -15.5 -15.5 v 15.5 15.5 H 1007.5 992 V 992 961 H 976.5 961 v 31 31 H 945.5 930 V 992 961 H 914.5 899 V 976.5 992 H 883.5 868 V 976.5 961 H 837 806 V 976.5 992 H 790.5 775 V 976.5 961 H 759.5 744 V 945.5 930 H 759.5 775 V 945.5 961 H 790.5 806 V 883.5 806 h 62 62 V 790.5 775 H 899 868 V 759.5 744 H 914.5 961 V 728.5 713 H 945.5 930 V 697.5 682 H 914.5 899 V 666.5 651 H 868 837 V 666.5 682 H 852.5 868 V 697.5 713 H 852.5 837 v 31 31 H 821.5 806 v -31 -31 h -31 -31 v 31 31 H 759.5 775 V 790.5 806 H 759.5 744 V 821.5 837 H 759.5 775 V 852.5 868 H 759.5 744 V 883.5 899 H 728.5 713 V 914.5 930 H 682 651 V 914.5 899 H 666.5 682 V 883.5 868 H 666.5 651 v -31 -31 h 31 31 V 790.5 775 H 697.5 682 V 759.5 744 H 651 620 V 759.5 775 H 604.5 589 V 790.5 806 H 604.5 620 V 821.5 837 H 604.5 589 V 821.5 806 H 573.5 558 v 31 31 H 573.5 589 V 914.5 961 H 604.5 620 V 976.5 992 H 635.5 651 V 976.5 961 h 31 31 v 15.5 15.5 h 15.5 15.5 v 46.5 46.5 H 728.5 713 V 1038.5 992 h -31 -31 v 31 31 h -31 -31 v 15.5 15.5 H 573.5 558 V 1069.5 1054 H 542.5 527 v 15.5 15.5 H 511.5 496 V 1038.5 992 H 480.5 465 v 31 31 H 449.5 434 V 992 930 H 418.5 403 v 46.5 46.5 H 387.5 372 v 15.5 15.5 h 15.5 15.5 v 15.5 15.5 H 387.5 372 V 1069.5 1054 H 356.5 341 v 15.5 15.5 H 325.5 310 Z m 310,-62 V 992 H 604.5 589 V 976.5 961 H 573.5 558 V 976.5 992 H 542.5 527 v 15.5 15.5 h 46.5 46.5 z m -248,-31 V 961 H 356.5 341 v 15.5 15.5 h 15.5 15.5 z m 124,-31 V 930 H 480.5 465 V 883.5 837 h 15.5 15.5 v 15.5 15.5 h 15.5 15.5 v 31 31 H 542.5 558 V 899 868 H 542.5 527 V 837 806 H 542.5 558 V 790.5 775 H 573.5 589 V 759.5 744 H 604.5 620 V 728.5 713 H 604.5 589 V 728.5 744 H 573.5 558 V 759.5 775 H 542.5 527 V 790.5 806 H 496 465 V 790.5 775 H 480.5 496 V 759.5 744 H 511.5 527 V 728.5 713 H 542.5 558 V 697.5 682 H 542.5 527 V 697.5 713 H 511.5 496 V 728.5 744 H 480.5 465 V 759.5 775 H 449.5 434 V 759.5 744 H 418.5 403 V 759.5 775 H 387.5 372 V 759.5 744 H 356.5 341 V 759.5 775 H 356.5 372 V 790.5 806 H 387.5 403 V 790.5 775 h 15.5 15.5 v 31 31 h -31 -31 v 15.5 15.5 h 31 31 v 31 31 h 15.5 15.5 v 15.5 15.5 h 15.5 15.5 z m 434,-62 V 837 H 883.5 837 v 46.5 46.5 h 46.5 46.5 z m -62,0 V 868 H 883.5 899 V 883.5 899 H 883.5 868 Z m -124,-31 V 837 h -31 -31 v 15.5 15.5 h 31 31 z m 0,-155 V 682 h -31 -31 v 15.5 15.5 h 31 31 z m -372,-31 V 651 H 387.5 403 V 635.5 620 H 418.5 434 V 589 558 H 418.5 403 V 527 496 H 356.5 310 v 46.5 46.5 h 15.5 15.5 v 15.5 15.5 h -31 -31 v 15.5 15.5 h 31 31 v 15.5 15.5 h 15.5 15.5 z m -31,-31 V 620 H 356.5 372 V 635.5 651 H 356.5 341 Z m 279,0 V 620 H 635.5 651 V 635.5 651 H 728.5 806 V 635.5 620 H 790.5 775 V 604.5 589 H 790.5 806 V 573.5 558 H 821.5 837 V 573.5 589 H 852.5 868 V 604.5 620 H 883.5 899 V 604.5 589 H 914.5 930 V 527 465 H 945.5 961 V 449.5 434 H 945.5 930 V 418.5 403 H 914.5 899 v 93 93 H 883.5 868 V 558 527 H 852.5 837 V 511.5 496 H 852.5 868 V 480.5 465 H 852.5 837 V 480.5 496 H 821.5 806 V 480.5 465 H 790.5 775 V 449.5 434 H 759.5 744 V 449.5 465 H 759.5 775 V 480.5 496 H 759.5 744 v 31 31 H 759.5 775 V 573.5 589 H 728.5 682 V 604.5 620 H 666.5 651 V 589 558 H 635.5 620 V 573.5 589 H 604.5 589 v 31 31 H 604.5 620 Z M 775,527 v -31 h 15.5 15.5 v 31 31 H 790.5 775 Z m -62,15.5 V 527 H 697.5 682 v 15.5 15.5 h 15.5 15.5 z m -589,-31 V 496 H 108.5 93 v 15.5 15.5 h 15.5 15.5 z m 279,-62 V 434 H 418.5 434 V 403 372 H 403 372 V 356.5 341 H 387.5 403 V 325.5 310 H 387.5 372 V 325.5 341 H 341 310 V 356.5 372 H 294.5 279 V 356.5 341 H 263.5 248 V 356.5 372 H 263.5 279 V 387.5 403 H 263.5 248 V 418.5 434 H 263.5 279 V 418.5 403 h 15.5 15.5 v 15.5 15.5 h 15.5 15.5 v 15.5 15.5 h 31 31 z m -62,-31 V 403 H 356.5 372 V 418.5 434 H 356.5 341 Z m 403,-31 V 372 h -31 -31 v 15.5 15.5 h 31 31 z m -31,-62 V 310 H 697.5 682 v 15.5 15.5 h 15.5 15.5 z m -279,-62 V 248 H 418.5 403 V 263.5 279 H 418.5 434 Z M 682,248 V 217 H 666.5 651 v 31 31 H 666.5 682 Z M 589,170.5 V 155 H 573.5 558 v 15.5 15.5 h 15.5 15.5 z m -155,-62 V 93 H 418.5 403 v 15.5 15.5 h 15.5 15.5 z m 372,961 V 1054 h 15.5 15.5 v -15.5 -15.5 h 31 31 v 31 31 H 852.5 806 Z m 124,0 V 1054 h 15.5 15.5 v 15.5 15.5 H 945.5 930 Z m 62,0 V 1054 h 31 31 v 15.5 15.5 h -31 -31 z M 62,821.5 V 806 H 77.5 93 V 790.5 775 H 77.5 62 V 759.5 744 H 77.5 93 V 713 682 H 77.5 62 V 651 620 H 77.5 93 V 635.5 651 H 108.5 124 V 635.5 620 H 139.5 155 V 604.5 589 H 170.5 186 V 604.5 620 H 170.5 155 v 15.5 15.5 h 31 31 v 15.5 15.5 h -31 -31 v 15.5 15.5 h 31 31 v 31 31 H 186 155 V 790.5 806 H 124 93 V 821.5 837 H 77.5 62 Z m 93,-93 V 713 H 139.5 124 v 15.5 15.5 h 15.5 15.5 z m 0,-62 V 651 H 139.5 124 v 15.5 15.5 h 15.5 15.5 z m 341,-248 V 403 H 511.5 527 V 418.5 434 H 511.5 496 Z m 62,0 V 403 H 573.5 589 V 387.5 372 H 573.5 558 V 356.5 341 H 527 496 V 294.5 248 h 15.5 15.5 v 31 31 h 15.5 15.5 v 15.5 15.5 h 15.5 15.5 v 15.5 15.5 h 15.5 15.5 v 31 31 H 589 558 Z M 62,341 V 310 H 77.5 93 v 31 31 H 77.5 62 Z M 62,170.5 V 62 H 170.5 279 V 170.5 279 H 170.5 62 Z m 184,0 V 95 H 170.5 95 v 75.5 75.5 h 75.5 75.5 z m -122,0 V 124 H 170.5 217 V 170.5 217 H 170.5 124 Z m 744,0 V 62 H 976.5 1085 V 170.5 279 H 976.5 868 Z m 184,0 V 95 H 976.5 901 v 75.5 75.5 h 75.5 75.5 z m -122,0 V 124 h 46.5 46.5 V 170.5 217 H 976.5 930 Z m -155,31 V 186 H 759.5 744 V 155 124 H 759.5 775 V 108.5 93 H 744 713 V 77.5 62 H 759.5 806 V 77.5 93 H 821.5 837 V 108.5 124 H 821.5 806 V 170.5 217 H 790.5 775 Z m -124,-62 V 124 h 31 31 v 15.5 15.5 h -31 -31 z m 0,-62 V 62 H 666.5 682 V 77.5 93 H 666.5 651 Z"
       id="path1" />
  </g>
</svg>
