<?xml version="1.0" encoding="UTF-8" standalone="no"?>
<svg
   viewBox="0 0 2268.4731 2268.4759"
   width="2268.4731"
   height="2268.4758"
   version="1.1"
   id="svg172"
   sodipodi:docname="back_plane.svg"
   xml:space="preserve"
   inkscape:version="1.3 (0e150ed6c4, 2023-07-21)"
   xmlns:inkscape="http://www.inkscape.org/namespaces/inkscape"
   xmlns:sodipodi="http://sodipodi.sourceforge.net/DTD/sodipodi-0.dtd"
   xmlns="http://www.w3.org/2000/svg"
   xmlns:svg="http://www.w3.org/2000/svg"><sodipodi:namedview
     id="namedview172"
     pagecolor="#ffffff"
     bordercolor="#000000"
     borderopacity="0.25"
     inkscape:showpageshadow="2"
     inkscape:pageopacity="0.0"
     inkscape:pagecheckerboard="0"
     inkscape:deskcolor="#d1d1d1"
     inkscape:zoom="0.18106587"
     inkscape:cx="1770.074"
     inkscape:cy="1179.1289"
     inkscape:window-width="1920"
     inkscape:window-height="1009"
     inkscape:window-x="-8"
     inkscape:window-y="-8"
     inkscape:window-maximized="1"
     inkscape:current-layer="g172" /><desc
     id="desc1">back_plane.DXF - scale = 1.000000, origin = (0.000000, 0.000000), method = manual</desc><defs
     id="defs4"><marker
       id="DistanceX"
       orient="auto"
       refX="0"
       refY="0"
       style="overflow:visible"><path
         d="M 3,-3 -3,3 M 0,-5 V 5"
         style="stroke:#000000;stroke-width:0.5"
         id="path1" /></marker><pattern
       id="Hatch"
       patternUnits="userSpaceOnUse"
       width="8"
       height="8"
       x="0"
       y="0"><path
         d="M8 4 l-4,4"
         stroke="#000000"
         stroke-width="0.25"
         linecap="square"
         id="path2" /><path
         d="M6 2 l-4,4"
         stroke="#000000"
         stroke-width="0.25"
         linecap="square"
         id="path3" /><path
         d="M4 0 l-4,4"
         stroke="#000000"
         stroke-width="0.25"
         linecap="square"
         id="path4" /></pattern><symbol
       id="*Model_Space" /><symbol
       id="*Paper_Space" /><symbol
       id="*Paper_Space0" /></defs><g
     inkscape:groupmode="layer"
     inkscape:label="0"
     id="g172"
     transform="translate(23.055153,1122.898)"><path
       d="m 1402.2047,419.52756 a 7.559055,7.559055 0 0 0 -15.1181,0 7.559055,7.559055 0 0 0 15.1181,0 z"
       style="fill:none;stroke:#ff0000;stroke-width:0.755906;stroke-linecap:round;stroke-dasharray:none;stroke-opacity:1"
       id="path5" /><path
       d="m 1402.2047,986.45669 a 7.559055,7.559055 0 0 0 -15.1181,0 7.559055,7.559055 0 0 0 15.1181,0 z"
       style="fill:none;stroke:#ff0000;stroke-width:0.755906;stroke-linecap:round;stroke-dasharray:none;stroke-opacity:1"
       id="path6" /><path
       d="m 835.27559,986.45669 a 7.5590555,7.5590555 0 0 0 -15.11811,0 7.5590555,7.5590555 0 0 0 15.11811,0 z"
       style="fill:none;stroke:#ff0000;stroke-width:0.755906;stroke-linecap:round;stroke-dasharray:none;stroke-opacity:1"
       id="path7" /><path
       d="m 891.9685,476.22047 a 7.559055,7.559055 0 0 0 -15.11811,0 7.559055,7.559055 0 0 0 15.11811,0 z"
       style="fill:none;stroke:#ff0000;stroke-width:0.755906;stroke-linecap:round;stroke-dasharray:none;stroke-opacity:1"
       id="path8" /><path
       d="m 1345.5118,476.22047 a 7.559055,7.559055 0 0 0 -15.1181,0 7.559055,7.559055 0 0 0 15.1181,0 z"
       style="fill:none;stroke:#ff0000;stroke-width:0.755906;stroke-linecap:round;stroke-dasharray:none;stroke-opacity:1"
       id="path9" /><path
       d="m 1345.5118,929.76378 a 7.559055,7.559055 0 0 0 -15.1181,0 7.559055,7.559055 0 0 0 15.1181,0 z"
       style="fill:none;stroke:#ff0000;stroke-width:0.755906;stroke-linecap:round;stroke-dasharray:none;stroke-opacity:1"
       id="path10" /><path
       d="m 891.9685,929.76378 a 7.559055,7.559055 0 0 0 -15.11811,0 7.559055,7.559055 0 0 0 15.11811,0 z"
       style="fill:none;stroke:#ff0000;stroke-width:0.755906;stroke-linecap:round;stroke-dasharray:none;stroke-opacity:1"
       id="path11" /><path
       d="m 835.27559,419.52756 a 7.5590555,7.5590555 0 0 0 -15.11811,0 7.5590555,7.5590555 0 0 0 15.11811,0 z"
       style="fill:none;stroke:#ff0000;stroke-width:0.755906;stroke-linecap:round;stroke-dasharray:none;stroke-opacity:1"
       id="path12" /><path
       d="m 899.52756,230.55118 a 7.559055,7.559055 0 0 0 -15.11811,0 7.559055,7.559055 0 0 0 15.11811,0 z"
       style="fill:none;stroke:#ff0000;stroke-width:0.755906;stroke-linecap:round;stroke-dasharray:none;stroke-opacity:1"
       id="path13" /><path
       d="m 1337.9528,230.55118 a 7.5591,7.5591 0 0 0 -15.1182,0 7.5591,7.5591 0 0 0 15.1182,0 z"
       style="fill:none;stroke:#ff0000;stroke-width:0.755906;stroke-linecap:round;stroke-dasharray:none;stroke-opacity:1"
       id="path14" /><path
       d="m 1337.9528,-207.87402 a 7.5591,7.5591 0 0 0 -15.1182,0 7.5591,7.5591 0 0 0 15.1182,0 z"
       style="fill:none;stroke:#ff0000;stroke-width:0.755906;stroke-linecap:round;stroke-dasharray:none;stroke-opacity:1"
       id="path15" /><path
       d="m 899.52756,-207.87402 a 7.559055,7.559055 0 0 0 -15.11811,0 7.559055,7.559055 0 0 0 15.11811,0 z"
       style="fill:none;stroke:#ff0000;stroke-width:0.755906;stroke-linecap:round;stroke-dasharray:none;stroke-opacity:1"
       id="path16" /><path
       style="fill:none;stroke:#ff0000;stroke-width:0.755906;stroke-linecap:round;stroke-dasharray:none;stroke-opacity:1"
       d="m 1134.05,-19.0866 h -45.74"
       id="path17" /><path
       d="m 1141.6063,-11.527559 a 7.559055,7.559055 0 0 0 -7.5591,-7.559055"
       style="fill:none;stroke:#ff0000;stroke-width:0.755906;stroke-linecap:round;stroke-dasharray:none;stroke-opacity:1"
       id="path18" /><path
       style="fill:none;stroke:#ff0000;stroke-width:0.755906;stroke-linecap:round;stroke-dasharray:none;stroke-opacity:1"
       d="M 1141.61,34.2047 V -11.5276"
       id="path19" /><path
       d="m 1134.0472,41.76378 a 7.559055,7.559055 0 0 0 7.5591,-7.559056"
       style="fill:none;stroke:#ff0000;stroke-width:0.755906;stroke-linecap:round;stroke-dasharray:none;stroke-opacity:1"
       id="path20" /><path
       style="fill:none;stroke:#ff0000;stroke-width:0.755906;stroke-linecap:round;stroke-dasharray:none;stroke-opacity:1"
       d="m 1088.31,41.7638 h 45.74"
       id="path21" /><path
       d="m 1080.7559,34.204724 a 7.559055,7.559055 0 0 0 7.5591,7.559056"
       style="fill:none;stroke:#ff0000;stroke-width:0.755906;stroke-linecap:round;stroke-dasharray:none;stroke-opacity:1"
       id="path22" /><path
       style="fill:none;stroke:#ff0000;stroke-width:0.755906;stroke-linecap:round;stroke-dasharray:none;stroke-opacity:1"
       d="M 1080.76,-11.5276 V 34.2047"
       id="path23" /><path
       d="m 1088.315,-19.086614 a 7.559055,7.559055 0 0 0 -7.5591,7.559055"
       style="fill:none;stroke:#ff0000;stroke-width:0.755906;stroke-linecap:round;stroke-dasharray:none;stroke-opacity:1"
       id="path24" /><path
       style="fill:none;stroke:#ff0000;stroke-width:0.755906;stroke-linecap:round;stroke-dasharray:none;stroke-opacity:1"
       d="m 380.787,778.016 h 76.347"
       id="path25" /><path
       style="fill:none;stroke:#ff0000;stroke-width:0.755906;stroke-linecap:round;stroke-dasharray:none;stroke-opacity:1"
       d="m 380.787,754.961 v 23.055"
       id="path26" /><path
       style="fill:none;stroke:#ff0000;stroke-width:0.755906;stroke-linecap:round;stroke-dasharray:none;stroke-opacity:1"
       d="M 457.134,754.961 H 380.787"
       id="path27" /><path
       style="fill:none;stroke:#ff0000;stroke-width:0.755906;stroke-linecap:round;stroke-dasharray:none;stroke-opacity:1"
       d="M 457.134,778.016 V 754.961"
       id="path28" /><path
       style="fill:none;stroke:#ff0000;stroke-width:0.755906;stroke-linecap:round;stroke-dasharray:none;stroke-opacity:1"
       d="m 380.787,400.441 h 76.347"
       id="path29" /><path
       style="fill:none;stroke:#ff0000;stroke-width:0.755906;stroke-linecap:round;stroke-dasharray:none;stroke-opacity:1"
       d="m 380.787,377.386 v 23.055"
       id="path30" /><path
       style="fill:none;stroke:#ff0000;stroke-width:0.755906;stroke-linecap:round;stroke-dasharray:none;stroke-opacity:1"
       d="M 457.134,377.386 H 380.787"
       id="path31" /><path
       style="fill:none;stroke:#ff0000;stroke-width:0.755906;stroke-linecap:round;stroke-dasharray:none;stroke-opacity:1"
       d="M 457.134,400.441 V 377.386"
       id="path32" /><path
       style="fill:none;stroke:#ff0000;stroke-width:0.755906;stroke-linecap:round;stroke-dasharray:none;stroke-opacity:1"
       d="m 380.787,-732.283 h 76.347"
       id="path33" /><path
       style="fill:none;stroke:#ff0000;stroke-width:0.755906;stroke-linecap:round;stroke-dasharray:none;stroke-opacity:1"
       d="m 380.787,-755.339 v 23.056"
       id="path34" /><path
       style="fill:none;stroke:#ff0000;stroke-width:0.755906;stroke-linecap:round;stroke-dasharray:none;stroke-opacity:1"
       d="M 457.134,-755.339 H 380.787"
       id="path35" /><path
       style="fill:none;stroke:#ff0000;stroke-width:0.755906;stroke-linecap:round;stroke-dasharray:none;stroke-opacity:1"
       d="m 457.134,-732.283 v -23.056"
       id="path36" /><path
       style="fill:none;stroke:#ff0000;stroke-width:0.755906;stroke-linecap:round;stroke-dasharray:none;stroke-opacity:1"
       d="m 380.787,-354.709 h 76.347"
       id="path37" /><path
       style="fill:none;stroke:#ff0000;stroke-width:0.755906;stroke-linecap:round;stroke-dasharray:none;stroke-opacity:1"
       d="m 380.787,-377.764 v 23.055"
       id="path38" /><path
       style="fill:none;stroke:#ff0000;stroke-width:0.755906;stroke-linecap:round;stroke-dasharray:none;stroke-opacity:1"
       d="M 457.134,-377.764 H 380.787"
       id="path39" /><path
       style="fill:none;stroke:#ff0000;stroke-width:0.755906;stroke-linecap:round;stroke-dasharray:none;stroke-opacity:1"
       d="m 457.134,-354.709 v -23.055"
       id="path40" /><path
       style="fill:none;stroke:#ff0000;stroke-width:0.755906;stroke-linecap:round;stroke-dasharray:none;stroke-opacity:1"
       d="m 884.22,778.016 h 76.347"
       id="path41" /><path
       style="fill:none;stroke:#ff0000;stroke-width:0.755906;stroke-linecap:round;stroke-dasharray:none;stroke-opacity:1"
       d="m 884.22,754.961 v 23.055"
       id="path42" /><path
       style="fill:none;stroke:#ff0000;stroke-width:0.755906;stroke-linecap:round;stroke-dasharray:none;stroke-opacity:1"
       d="M 960.567,754.961 H 884.22"
       id="path43" /><path
       style="fill:none;stroke:#ff0000;stroke-width:0.755906;stroke-linecap:round;stroke-dasharray:none;stroke-opacity:1"
       d="M 960.567,778.016 V 754.961"
       id="path44" /><path
       style="fill:none;stroke:#ff0000;stroke-width:0.755906;stroke-linecap:round;stroke-dasharray:none;stroke-opacity:1"
       d="m 884.22,400.441 h 76.347"
       id="path45" /><path
       style="fill:none;stroke:#ff0000;stroke-width:0.755906;stroke-linecap:round;stroke-dasharray:none;stroke-opacity:1"
       d="m 884.22,377.386 v 23.055"
       id="path46" /><path
       style="fill:none;stroke:#ff0000;stroke-width:0.755906;stroke-linecap:round;stroke-dasharray:none;stroke-opacity:1"
       d="M 960.567,377.386 H 884.22"
       id="path47" /><path
       style="fill:none;stroke:#ff0000;stroke-width:0.755906;stroke-linecap:round;stroke-dasharray:none;stroke-opacity:1"
       d="M 960.567,400.441 V 377.386"
       id="path48" /><path
       style="fill:none;stroke:#ff0000;stroke-width:0.755906;stroke-linecap:round;stroke-dasharray:none;stroke-opacity:1"
       d="m 884.22,-732.283 h 76.347"
       id="path49" /><path
       style="fill:none;stroke:#ff0000;stroke-width:0.755906;stroke-linecap:round;stroke-dasharray:none;stroke-opacity:1"
       d="m 884.22,-755.339 v 23.056"
       id="path50" /><path
       style="fill:none;stroke:#ff0000;stroke-width:0.755906;stroke-linecap:round;stroke-dasharray:none;stroke-opacity:1"
       d="M 960.567,-755.339 H 884.22"
       id="path51" /><path
       style="fill:none;stroke:#ff0000;stroke-width:0.755906;stroke-linecap:round;stroke-dasharray:none;stroke-opacity:1"
       d="m 960.567,-732.283 v -23.056"
       id="path52" /><path
       style="fill:none;stroke:#ff0000;stroke-width:0.755906;stroke-linecap:round;stroke-dasharray:none;stroke-opacity:1"
       d="m 884.22,-354.709 h 76.347"
       id="path53" /><path
       style="fill:none;stroke:#ff0000;stroke-width:0.755906;stroke-linecap:round;stroke-dasharray:none;stroke-opacity:1"
       d="m 884.22,-377.764 v 23.055"
       id="path54" /><path
       style="fill:none;stroke:#ff0000;stroke-width:0.755906;stroke-linecap:round;stroke-dasharray:none;stroke-opacity:1"
       d="M 960.567,-377.764 H 884.22"
       id="path55" /><path
       style="fill:none;stroke:#ff0000;stroke-width:0.755906;stroke-linecap:round;stroke-dasharray:none;stroke-opacity:1"
       d="m 960.567,-354.709 v -23.055"
       id="path56" /><path
       style="fill:none;stroke:#ff0000;stroke-width:0.755906;stroke-linecap:round;stroke-dasharray:none;stroke-opacity:1"
       d="m 1841.57,-755.339 v 23.056"
       id="path57" /><path
       style="fill:none;stroke:#ff0000;stroke-width:0.755906;stroke-linecap:round;stroke-dasharray:none;stroke-opacity:1"
       d="m 1841.57,-732.283 h -76.34"
       id="path58" /><path
       style="fill:none;stroke:#ff0000;stroke-width:0.755906;stroke-linecap:round;stroke-dasharray:none;stroke-opacity:1"
       d="m 1765.23,-732.283 v -23.056"
       id="path59" /><path
       style="fill:none;stroke:#ff0000;stroke-width:0.755906;stroke-linecap:round;stroke-dasharray:none;stroke-opacity:1"
       d="m 1765.23,-755.339 h 76.34"
       id="path60" /><path
       style="fill:none;stroke:#ff0000;stroke-width:0.755906;stroke-linecap:round;stroke-dasharray:none;stroke-opacity:1"
       d="m 1841.57,-377.764 v 23.055"
       id="path61" /><path
       style="fill:none;stroke:#ff0000;stroke-width:0.755906;stroke-linecap:round;stroke-dasharray:none;stroke-opacity:1"
       d="m 1841.57,-354.709 h -76.34"
       id="path62" /><path
       style="fill:none;stroke:#ff0000;stroke-width:0.755906;stroke-linecap:round;stroke-dasharray:none;stroke-opacity:1"
       d="m 1765.23,-354.709 v -23.055"
       id="path63" /><path
       style="fill:none;stroke:#ff0000;stroke-width:0.755906;stroke-linecap:round;stroke-dasharray:none;stroke-opacity:1"
       d="m 1765.23,-377.764 h 76.34"
       id="path64" /><path
       style="fill:none;stroke:#ff0000;stroke-width:0.755906;stroke-linecap:round;stroke-dasharray:none;stroke-opacity:1"
       d="m 1841.57,754.961 v 23.055"
       id="path65" /><path
       style="fill:none;stroke:#ff0000;stroke-width:0.755906;stroke-linecap:round;stroke-dasharray:none;stroke-opacity:1"
       d="m 1841.57,778.016 h -76.34"
       id="path66" /><path
       style="fill:none;stroke:#ff0000;stroke-width:0.755906;stroke-linecap:round;stroke-dasharray:none;stroke-opacity:1"
       d="M 1765.23,778.016 V 754.961"
       id="path67" /><path
       style="fill:none;stroke:#ff0000;stroke-width:0.755906;stroke-linecap:round;stroke-dasharray:none;stroke-opacity:1"
       d="m 1765.23,754.961 h 76.34"
       id="path68" /><path
       style="fill:none;stroke:#ff0000;stroke-width:0.755906;stroke-linecap:round;stroke-dasharray:none;stroke-opacity:1"
       d="m 1841.57,377.386 v 23.055"
       id="path69" /><path
       style="fill:none;stroke:#ff0000;stroke-width:0.755906;stroke-linecap:round;stroke-dasharray:none;stroke-opacity:1"
       d="m 1841.57,400.441 h -76.34"
       id="path70" /><path
       style="fill:none;stroke:#ff0000;stroke-width:0.755906;stroke-linecap:round;stroke-dasharray:none;stroke-opacity:1"
       d="M 1765.23,400.441 V 377.386"
       id="path71" /><path
       style="fill:none;stroke:#ff0000;stroke-width:0.755906;stroke-linecap:round;stroke-dasharray:none;stroke-opacity:1"
       d="m 1765.23,377.386 h 76.34"
       id="path72" /><path
       style="fill:none;stroke:#ff0000;stroke-width:0.755906;stroke-linecap:round;stroke-dasharray:none;stroke-opacity:1"
       d="M 1841.57,-0.188976 V 22.8661"
       id="path73" /><path
       style="fill:none;stroke:#ff0000;stroke-width:0.755906;stroke-linecap:round;stroke-dasharray:none;stroke-opacity:1"
       d="m 1841.57,22.8661 h -76.34"
       id="path74" /><path
       style="fill:none;stroke:#ff0000;stroke-width:0.755906;stroke-linecap:round;stroke-dasharray:none;stroke-opacity:1"
       d="M 1765.23,22.8661 V -0.188976"
       id="path75" /><path
       style="fill:none;stroke:#ff0000;stroke-width:0.755906;stroke-linecap:round;stroke-dasharray:none;stroke-opacity:1"
       d="m 1765.23,-0.188976 h 76.34"
       id="path76" /><path
       style="fill:none;stroke:#ff0000;stroke-width:0.755906;stroke-linecap:round;stroke-dasharray:none;stroke-opacity:1"
       d="m 884.22,22.8661 h 76.347"
       id="path77" /><path
       style="fill:none;stroke:#ff0000;stroke-width:0.755906;stroke-linecap:round;stroke-dasharray:none;stroke-opacity:1"
       d="M 884.22,-0.188976 V 22.8661"
       id="path78" /><path
       style="fill:none;stroke:#ff0000;stroke-width:0.755906;stroke-linecap:round;stroke-dasharray:none;stroke-opacity:1"
       d="M 960.567,-0.188976 H 884.22"
       id="path79" /><path
       style="fill:none;stroke:#ff0000;stroke-width:0.755906;stroke-linecap:round;stroke-dasharray:none;stroke-opacity:1"
       d="M 960.567,22.8661 V -0.188976"
       id="path80" /><path
       style="fill:none;stroke:#ff0000;stroke-width:0.755906;stroke-linecap:round;stroke-dasharray:none;stroke-opacity:1"
       d="m 380.787,22.8661 h 76.347"
       id="path81" /><path
       style="fill:none;stroke:#ff0000;stroke-width:0.755906;stroke-linecap:round;stroke-dasharray:none;stroke-opacity:1"
       d="M 380.787,-0.188976 V 22.8661"
       id="path82" /><path
       style="fill:none;stroke:#ff0000;stroke-width:0.755906;stroke-linecap:round;stroke-dasharray:none;stroke-opacity:1"
       d="M 457.134,-0.188976 H 380.787"
       id="path83" /><path
       style="fill:none;stroke:#ff0000;stroke-width:0.755906;stroke-linecap:round;stroke-dasharray:none;stroke-opacity:1"
       d="M 457.134,22.8661 V -0.188976"
       id="path84" /><path
       style="fill:none;stroke:#ff0000;stroke-width:0.755906;stroke-linecap:round;stroke-dasharray:none;stroke-opacity:1"
       d="m 0,-1099.84 v 128.501"
       id="path85" /><path
       style="fill:none;stroke:#ff0000;stroke-width:0.755906;stroke-linecap:round;stroke-dasharray:none;stroke-opacity:1"
       d="M 0,-971.339 H -22.6772"
       id="path86" /><path
       style="fill:none;stroke:#ff0000;stroke-width:0.755906;stroke-linecap:round;stroke-dasharray:none;stroke-opacity:1"
       d="m -22.6772,-971.339 v 75.591"
       id="path87" /><path
       style="fill:none;stroke:#ff0000;stroke-width:0.755906;stroke-linecap:round;stroke-dasharray:none;stroke-opacity:1"
       d="M -22.6772,-895.748 H 0"
       id="path88" /><path
       style="fill:none;stroke:#ff0000;stroke-width:0.755906;stroke-linecap:round;stroke-dasharray:none;stroke-opacity:1"
       d="m 0,-895.748 v 551.811"
       id="path89" /><path
       style="fill:none;stroke:#ff0000;stroke-width:0.755906;stroke-linecap:round;stroke-dasharray:none;stroke-opacity:1"
       d="M 0,-343.937 H -22.6772"
       id="path90" /><path
       style="fill:none;stroke:#ff0000;stroke-width:0.755906;stroke-linecap:round;stroke-dasharray:none;stroke-opacity:1"
       d="m -22.6772,-343.937 v 75.591"
       id="path91" /><path
       style="fill:none;stroke:#ff0000;stroke-width:0.755906;stroke-linecap:round;stroke-dasharray:none;stroke-opacity:1"
       d="M -22.6772,-268.346 H 0"
       id="path92" /><path
       style="fill:none;stroke:#ff0000;stroke-width:0.755906;stroke-linecap:round;stroke-dasharray:none;stroke-opacity:1"
       d="m 0,-268.346 v 559.37"
       id="path93" /><path
       style="fill:none;stroke:#ff0000;stroke-width:0.755906;stroke-linecap:round;stroke-dasharray:none;stroke-opacity:1"
       d="M -22.6772,291.024 H 0"
       id="path94" /><path
       style="fill:none;stroke:#ff0000;stroke-width:0.755906;stroke-linecap:round;stroke-dasharray:none;stroke-opacity:1"
       d="m -22.6772,366.614 v -75.59"
       id="path95" /><path
       style="fill:none;stroke:#ff0000;stroke-width:0.755906;stroke-linecap:round;stroke-dasharray:none;stroke-opacity:1"
       d="M 0,366.614 H -22.6772"
       id="path96" /><path
       style="fill:none;stroke:#ff0000;stroke-width:0.755906;stroke-linecap:round;stroke-dasharray:none;stroke-opacity:1"
       d="M 0,366.614 V 918.425"
       id="path97" /><path
       style="fill:none;stroke:#ff0000;stroke-width:0.755906;stroke-linecap:round;stroke-dasharray:none;stroke-opacity:1"
       d="M -22.6772,918.425 H 0"
       id="path98" /><path
       style="fill:none;stroke:#ff0000;stroke-width:0.755906;stroke-linecap:round;stroke-dasharray:none;stroke-opacity:1"
       d="M -22.6772,994.016 V 918.425"
       id="path99" /><path
       style="fill:none;stroke:#ff0000;stroke-width:0.755906;stroke-linecap:round;stroke-dasharray:none;stroke-opacity:1"
       d="M 0,994.016 H -22.6772"
       id="path100" /><path
       style="fill:none;stroke:#ff0000;stroke-width:0.755906;stroke-linecap:round;stroke-dasharray:none;stroke-opacity:1"
       d="M 0,994.016 V 1122.52"
       id="path101" /><path
       style="fill:none;stroke:#ff0000;stroke-width:0.755906;stroke-linecap:round;stroke-dasharray:none;stroke-opacity:1"
       d="M 0,1122.52 H 128.504"
       id="path102" /><path
       style="fill:none;stroke:#ff0000;stroke-width:0.755906;stroke-linecap:round;stroke-dasharray:none;stroke-opacity:1"
       d="m 128.504,1122.52 v 22.68"
       id="path103" /><path
       style="fill:none;stroke:#ff0000;stroke-width:0.755906;stroke-linecap:round;stroke-dasharray:none;stroke-opacity:1"
       d="m 128.504,1145.2 h 75.59"
       id="path104" /><path
       style="fill:none;stroke:#ff0000;stroke-width:0.755906;stroke-linecap:round;stroke-dasharray:none;stroke-opacity:1"
       d="m 204.094,1145.2 v -22.68"
       id="path105" /><path
       style="fill:none;stroke:#ff0000;stroke-width:0.755906;stroke-linecap:round;stroke-dasharray:none;stroke-opacity:1"
       d="M 204.094,1122.52 H 755.906"
       id="path106" /><path
       style="fill:none;stroke:#ff0000;stroke-width:0.755906;stroke-linecap:round;stroke-dasharray:none;stroke-opacity:1"
       d="m 755.906,1122.52 v 22.68"
       id="path107" /><path
       style="fill:none;stroke:#ff0000;stroke-width:0.755906;stroke-linecap:round;stroke-dasharray:none;stroke-opacity:1"
       d="m 755.906,1145.2 h 75.59"
       id="path108" /><path
       style="fill:none;stroke:#ff0000;stroke-width:0.755906;stroke-linecap:round;stroke-dasharray:none;stroke-opacity:1"
       d="m 831.496,1145.2 v -22.68"
       id="path109" /><path
       style="fill:none;stroke:#ff0000;stroke-width:0.755906;stroke-linecap:round;stroke-dasharray:none;stroke-opacity:1"
       d="M 831.496,1122.52 H 1390.87"
       id="path110" /><path
       style="fill:none;stroke:#ff0000;stroke-width:0.755906;stroke-linecap:round;stroke-dasharray:none;stroke-opacity:1"
       d="m 1390.87,1145.2 v -22.68"
       id="path111" /><path
       style="fill:none;stroke:#ff0000;stroke-width:0.755906;stroke-linecap:round;stroke-dasharray:none;stroke-opacity:1"
       d="m 1466.46,1145.2 h -75.59"
       id="path112" /><path
       style="fill:none;stroke:#ff0000;stroke-width:0.755906;stroke-linecap:round;stroke-dasharray:none;stroke-opacity:1"
       d="m 1466.46,1122.52 v 22.68"
       id="path113" /><path
       style="fill:none;stroke:#ff0000;stroke-width:0.755906;stroke-linecap:round;stroke-dasharray:none;stroke-opacity:1"
       d="m 1466.46,1122.52 h 551.81"
       id="path114" /><path
       style="fill:none;stroke:#ff0000;stroke-width:0.755906;stroke-linecap:round;stroke-dasharray:none;stroke-opacity:1"
       d="m 2018.27,1145.2 v -22.68"
       id="path115" /><path
       style="fill:none;stroke:#ff0000;stroke-width:0.755906;stroke-linecap:round;stroke-dasharray:none;stroke-opacity:1"
       d="m 2093.86,1145.2 h -75.59"
       id="path116" /><path
       style="fill:none;stroke:#ff0000;stroke-width:0.755906;stroke-linecap:round;stroke-dasharray:none;stroke-opacity:1"
       d="m 2093.86,1122.52 v 22.68"
       id="path117" /><path
       style="fill:none;stroke:#ff0000;stroke-width:0.755906;stroke-linecap:round;stroke-dasharray:none;stroke-opacity:1"
       d="m 2093.86,1122.52 h 128.5"
       id="path118" /><path
       style="fill:none;stroke:#ff0000;stroke-width:0.755906;stroke-linecap:round;stroke-dasharray:none;stroke-opacity:1"
       d="M 2222.36,1122.52 V 994.016"
       id="path119" /><path
       style="fill:none;stroke:#ff0000;stroke-width:0.755906;stroke-linecap:round;stroke-dasharray:none;stroke-opacity:1"
       d="m 2222.36,994.016 h 22.68"
       id="path120" /><path
       style="fill:none;stroke:#ff0000;stroke-width:0.755906;stroke-linecap:round;stroke-dasharray:none;stroke-opacity:1"
       d="M 2245.04,994.016 V 918.425"
       id="path121" /><path
       style="fill:none;stroke:#ff0000;stroke-width:0.755906;stroke-linecap:round;stroke-dasharray:none;stroke-opacity:1"
       d="m 2245.04,918.425 h -22.68"
       id="path122" /><path
       style="fill:none;stroke:#ff0000;stroke-width:0.755906;stroke-linecap:round;stroke-dasharray:none;stroke-opacity:1"
       d="M 2222.36,918.425 V 366.614"
       id="path123" /><path
       style="fill:none;stroke:#ff0000;stroke-width:0.755906;stroke-linecap:round;stroke-dasharray:none;stroke-opacity:1"
       d="m 2222.36,366.614 h 22.68"
       id="path124" /><path
       style="fill:none;stroke:#ff0000;stroke-width:0.755906;stroke-linecap:round;stroke-dasharray:none;stroke-opacity:1"
       d="m 2245.04,366.614 v -75.59"
       id="path125" /><path
       style="fill:none;stroke:#ff0000;stroke-width:0.755906;stroke-linecap:round;stroke-dasharray:none;stroke-opacity:1"
       d="m 2245.04,291.024 h -22.68"
       id="path126" /><path
       style="fill:none;stroke:#ff0000;stroke-width:0.755906;stroke-linecap:round;stroke-dasharray:none;stroke-opacity:1"
       d="m 2222.36,291.024 v -559.37"
       id="path127" /><path
       style="fill:none;stroke:#ff0000;stroke-width:0.755906;stroke-linecap:round;stroke-dasharray:none;stroke-opacity:1"
       d="m 2245.04,-268.346 h -22.68"
       id="path128" /><path
       style="fill:none;stroke:#ff0000;stroke-width:0.755906;stroke-linecap:round;stroke-dasharray:none;stroke-opacity:1"
       d="m 2245.04,-343.937 v 75.591"
       id="path129" /><path
       style="fill:none;stroke:#ff0000;stroke-width:0.755906;stroke-linecap:round;stroke-dasharray:none;stroke-opacity:1"
       d="m 2222.36,-343.937 h 22.68"
       id="path130" /><path
       style="fill:none;stroke:#ff0000;stroke-width:0.755906;stroke-linecap:round;stroke-dasharray:none;stroke-opacity:1"
       d="M 2222.36,-343.937 V -895.748"
       id="path131" /><path
       style="fill:none;stroke:#ff0000;stroke-width:0.755906;stroke-linecap:round;stroke-dasharray:none;stroke-opacity:1"
       d="m 2245.04,-895.748 h -22.68"
       id="path132" /><path
       style="fill:none;stroke:#ff0000;stroke-width:0.755906;stroke-linecap:round;stroke-dasharray:none;stroke-opacity:1"
       d="m 2245.04,-971.339 v 75.591"
       id="path133" /><path
       style="fill:none;stroke:#ff0000;stroke-width:0.755906;stroke-linecap:round;stroke-dasharray:none;stroke-opacity:1"
       d="m 2222.36,-971.339 h 22.68"
       id="path134" /><path
       style="fill:none;stroke:#ff0000;stroke-width:0.755906;stroke-linecap:round;stroke-dasharray:none;stroke-opacity:1"
       d="M 2222.36,-971.339 V -1099.84"
       id="path135" /><path
       style="fill:none;stroke:#ff0000;stroke-width:0.755906;stroke-linecap:round;stroke-dasharray:none;stroke-opacity:1"
       d="m 2222.36,-1099.84 h -128.5"
       id="path136" /><path
       style="fill:none;stroke:#ff0000;stroke-width:0.755906;stroke-linecap:round;stroke-dasharray:none;stroke-opacity:1"
       d="m 2093.86,-1099.84 v -22.68"
       id="path137" /><path
       style="fill:none;stroke:#ff0000;stroke-width:0.755906;stroke-linecap:round;stroke-dasharray:none;stroke-opacity:1"
       d="m 2093.86,-1122.52 h -75.59"
       id="path138" /><path
       style="fill:none;stroke:#ff0000;stroke-width:0.755906;stroke-linecap:round;stroke-dasharray:none;stroke-opacity:1"
       d="m 2018.27,-1122.52 v 22.68"
       id="path139" /><path
       style="fill:none;stroke:#ff0000;stroke-width:0.755906;stroke-linecap:round;stroke-dasharray:none;stroke-opacity:1"
       d="M 2018.27,-1099.84 H 1466.46"
       id="path140" /><path
       style="fill:none;stroke:#ff0000;stroke-width:0.755906;stroke-linecap:round;stroke-dasharray:none;stroke-opacity:1"
       d="m 1466.46,-1099.84 v -22.68"
       id="path141" /><path
       style="fill:none;stroke:#ff0000;stroke-width:0.755906;stroke-linecap:round;stroke-dasharray:none;stroke-opacity:1"
       d="m 1466.46,-1122.52 h -75.59"
       id="path142" /><path
       style="fill:none;stroke:#ff0000;stroke-width:0.755906;stroke-linecap:round;stroke-dasharray:none;stroke-opacity:1"
       d="m 1390.87,-1122.52 v 22.68"
       id="path143" /><path
       style="fill:none;stroke:#ff0000;stroke-width:0.755906;stroke-linecap:round;stroke-dasharray:none;stroke-opacity:1"
       d="M 1390.87,-1099.84 H 831.496"
       id="path144" /><path
       style="fill:none;stroke:#ff0000;stroke-width:0.755906;stroke-linecap:round;stroke-dasharray:none;stroke-opacity:1"
       d="m 831.496,-1122.52 v 22.68"
       id="path145" /><path
       style="fill:none;stroke:#ff0000;stroke-width:0.755906;stroke-linecap:round;stroke-dasharray:none;stroke-opacity:1"
       d="m 755.906,-1122.52 h 75.59"
       id="path146" /><path
       style="fill:none;stroke:#ff0000;stroke-width:0.755906;stroke-linecap:round;stroke-dasharray:none;stroke-opacity:1"
       d="m 755.906,-1099.84 v -22.68"
       id="path147" /><path
       style="fill:none;stroke:#ff0000;stroke-width:0.755906;stroke-linecap:round;stroke-dasharray:none;stroke-opacity:1"
       d="M 755.906,-1099.84 H 204.094"
       id="path148" /><path
       style="fill:none;stroke:#ff0000;stroke-width:0.755906;stroke-linecap:round;stroke-dasharray:none;stroke-opacity:1"
       d="m 204.094,-1122.52 v 22.68"
       id="path149" /><path
       style="fill:none;stroke:#ff0000;stroke-width:0.755906;stroke-linecap:round;stroke-dasharray:none;stroke-opacity:1"
       d="m 128.504,-1122.52 h 75.59"
       id="path150" /><path
       style="fill:none;stroke:#ff0000;stroke-width:0.755906;stroke-linecap:round;stroke-dasharray:none;stroke-opacity:1"
       d="m 128.504,-1099.84 v -22.68"
       id="path151" /><path
       style="fill:none;stroke:#ff0000;stroke-width:0.755906;stroke-linecap:round;stroke-dasharray:none;stroke-opacity:1"
       d="M 128.504,-1099.84 H 0"
       id="path152" /><path
       style="fill:none;stroke:#ff0000;stroke-width:0.755906;stroke-linecap:round;stroke-dasharray:none;stroke-opacity:1"
       d="M 1338.14,-0.188976 V 22.8661"
       id="path153" /><path
       style="fill:none;stroke:#ff0000;stroke-width:0.755906;stroke-linecap:round;stroke-dasharray:none;stroke-opacity:1"
       d="M 1338.14,22.8661 H 1261.8"
       id="path154" /><path
       style="fill:none;stroke:#ff0000;stroke-width:0.755906;stroke-linecap:round;stroke-dasharray:none;stroke-opacity:1"
       d="M 1261.8,22.8661 V -0.188976"
       id="path155" /><path
       style="fill:none;stroke:#ff0000;stroke-width:0.755906;stroke-linecap:round;stroke-dasharray:none;stroke-opacity:1"
       d="m 1261.8,-0.188976 h 76.34"
       id="path156" /><path
       style="fill:none;stroke:#ff0000;stroke-width:0.755906;stroke-linecap:round;stroke-dasharray:none;stroke-opacity:1"
       d="m 1338.14,377.386 v 23.055"
       id="path157" /><path
       style="fill:none;stroke:#ff0000;stroke-width:0.755906;stroke-linecap:round;stroke-dasharray:none;stroke-opacity:1"
       d="M 1338.14,400.441 H 1261.8"
       id="path158" /><path
       style="fill:none;stroke:#ff0000;stroke-width:0.755906;stroke-linecap:round;stroke-dasharray:none;stroke-opacity:1"
       d="M 1261.8,400.441 V 377.386"
       id="path159" /><path
       style="fill:none;stroke:#ff0000;stroke-width:0.755906;stroke-linecap:round;stroke-dasharray:none;stroke-opacity:1"
       d="m 1261.8,377.386 h 76.34"
       id="path160" /><path
       style="fill:none;stroke:#ff0000;stroke-width:0.755906;stroke-linecap:round;stroke-dasharray:none;stroke-opacity:1"
       d="m 1338.14,754.961 v 23.055"
       id="path161" /><path
       style="fill:none;stroke:#ff0000;stroke-width:0.755906;stroke-linecap:round;stroke-dasharray:none;stroke-opacity:1"
       d="M 1338.14,778.016 H 1261.8"
       id="path162" /><path
       style="fill:none;stroke:#ff0000;stroke-width:0.755906;stroke-linecap:round;stroke-dasharray:none;stroke-opacity:1"
       d="M 1261.8,778.016 V 754.961"
       id="path163" /><path
       style="fill:none;stroke:#ff0000;stroke-width:0.755906;stroke-linecap:round;stroke-dasharray:none;stroke-opacity:1"
       d="m 1261.8,754.961 h 76.34"
       id="path164" /><path
       style="fill:none;stroke:#ff0000;stroke-width:0.755906;stroke-linecap:round;stroke-dasharray:none;stroke-opacity:1"
       d="m 1338.14,-377.764 v 23.055"
       id="path165" /><path
       style="fill:none;stroke:#ff0000;stroke-width:0.755906;stroke-linecap:round;stroke-dasharray:none;stroke-opacity:1"
       d="M 1338.14,-354.709 H 1261.8"
       id="path166" /><path
       style="fill:none;stroke:#ff0000;stroke-width:0.755906;stroke-linecap:round;stroke-dasharray:none;stroke-opacity:1"
       d="m 1261.8,-354.709 v -23.055"
       id="path167" /><path
       style="fill:none;stroke:#ff0000;stroke-width:0.755906;stroke-linecap:round;stroke-dasharray:none;stroke-opacity:1"
       d="m 1261.8,-377.764 h 76.34"
       id="path168" /><path
       style="fill:none;stroke:#ff0000;stroke-width:0.755906;stroke-linecap:round;stroke-dasharray:none;stroke-opacity:1"
       d="m 1338.14,-755.339 v 23.056"
       id="path169" /><path
       style="fill:none;stroke:#ff0000;stroke-width:0.755906;stroke-linecap:round;stroke-dasharray:none;stroke-opacity:1"
       d="M 1338.14,-732.283 H 1261.8"
       id="path170" /><path
       style="fill:none;stroke:#ff0000;stroke-width:0.755906;stroke-linecap:round;stroke-dasharray:none;stroke-opacity:1"
       d="m 1261.8,-732.283 v -23.056"
       id="path171" /><path
       style="fill:none;stroke:#ff0000;stroke-width:0.755906;stroke-linecap:round;stroke-dasharray:none;stroke-opacity:1"
       d="m 1261.8,-755.339 h 76.34"
       id="path172" /><path
       style="fill:#000000;stroke-width:0.158925"
       d="m 2004.3524,1066.5704 v -17.2434 h 17.2433 17.2434 v 17.2434 17.2434 h -17.2434 -17.2433 z m 29.2422,0 v -11.9988 h -11.9989 -11.9988 v 11.9988 11.9988 h 11.9988 11.9989 z m -19.3888,0 v -7.39 h 7.3899 7.3901 v 7.39 7.39 h -7.3901 -7.3899 z m 29.5599,14.78 v -2.4633 h 2.4634 2.4633 v -4.9267 -4.9266 h -2.4633 -2.4634 v -2.4634 -2.4633 h 2.4634 2.4633 v -2.4634 -2.4633 h -2.4633 -2.4634 v -2.4632 -2.4635 h 4.9267 4.9267 v -2.4633 -2.4634 h -4.9267 -4.9267 v -2.4633 -2.4633 h 2.4634 2.4633 v -4.9266 -4.9267 h -2.4633 -2.4634 v 2.4634 2.4633 h -2.4633 -2.4633 v 2.4632 2.4634 h -2.4634 -2.4633 v -2.4634 -2.4632 h 2.4633 2.4634 v -2.4633 -2.4634 h -2.4634 -2.4633 v -2.4633 -2.4634 h 2.4633 2.4634 v 2.4634 2.4633 h 2.4633 2.4633 v -2.4633 -2.4634 h 2.4634 2.4633 v -4.9266 -4.9267 h -4.9267 -4.9266 v 2.4633 2.4634 h -2.4634 -2.4633 v -2.4634 -2.4633 h 2.4633 2.4634 v -2.4634 -2.4633 h -2.4634 -2.4633 v -2.4633 -2.4634 h 2.4633 2.4634 v -2.4633 -2.4634 h -2.4634 -2.4633 v -2.4633 -2.4633 h 2.4633 2.4634 v -2.46338 -2.46334 h -2.4634 -2.4633 v -2.46328 -2.46334 h 4.9267 4.9266 v -4.92663 -4.92667 h -2.4633 -2.4633 v 2.46333 2.46334 h -2.4634 -2.4633 v -2.46334 -2.46333 h -2.4633 -2.4633 v 2.46333 2.46334 h -2.4634 -2.4634 v 2.46333 2.4633 h -2.4633 -2.4634 v 2.46334 2.46328 h 4.9267 4.9268 v 2.46334 2.46338 h -4.9268 -4.9267 v -2.46338 -2.46334 h -2.4632 -2.4633 v 4.92672 4.9266 h -2.4634 -2.4633 v -2.4633 -2.4633 h -2.4634 -2.4633 v -9.85334 -9.8533 h 2.4633 2.4634 v 2.46333 2.46334 h 2.4633 2.4634 v 2.46333 2.4633 h 2.4633 2.4632 v -4.92663 -4.92667 h -2.4632 -2.4633 v -2.46334 -2.46334 h 2.4633 2.4632 v 2.46334 2.46334 h 2.4634 2.4633 v -7.39001 -7.39 h -2.4633 -2.4634 v 2.46334 2.46332 h -2.4632 -2.4633 v -2.46332 -2.46334 h 2.4633 2.4632 v -2.46334 -2.46333 h 2.4634 2.4633 v 2.46333 2.46334 h 2.4634 2.4634 v -2.46334 -2.46333 h 4.9266 4.9267 v 2.46333 2.46334 h 2.4633 2.4633 v -2.46334 -2.46333 h 2.4634 2.4633 v -2.46333 -2.46334 h -2.4633 -2.4634 v -4.92667 -4.92667 h 2.4634 2.4633 v -2.46334 -2.46333 h 2.4634 2.4633 v 2.46333 2.46334 h -2.4633 -2.4634 v 4.92667 4.92667 h 2.4634 2.4633 v -2.46333 -2.46334 h 2.4633 2.4634 v -7.39001 -7.39 h -4.9267 -4.9267 v -2.46333 -2.46334 h 2.4634 2.4633 v -2.46333 -2.46334 h -2.4633 -2.4634 v -2.46333 -2.46333 h 7.39 7.3901 v 2.46333 2.46333 h 2.4633 2.4633 v 4.92667 4.92667 h 2.4634 2.4632 v -2.46333 -2.46334 h 2.4633 2.4634 v -2.46333 -2.46334 h -2.4634 -2.4633 v -2.46333 -2.46333 h 7.3901 7.3899 v 2.46333 2.46333 h 2.4634 2.4633 v 7.39001 7.39 h -2.4633 -2.4634 v 2.46333 2.46334 h -2.4632 -2.4633 v -2.46334 -2.46333 h -2.4634 -2.4634 v -2.46334 -2.46333 h -2.4634 -2.4633 v 2.46333 2.46334 h -4.9266 -4.9266 v 4.92667 4.92667 h 2.4633 2.4633 v 2.46334 2.46333 h -2.4633 -2.4633 v 2.46334 2.46333 h 2.4633 2.4633 v 2.46333 2.46334 h -2.4633 -2.4633 v 2.46334 2.46332 h 2.4633 2.4633 v 4.92667 4.92668 h -2.4633 -2.4633 v 2.46333 2.46334 h -2.4634 -2.4633 v 2.46333 2.4633 h 4.9267 4.9266 v 9.85334 9.8533 h 2.4634 2.4632 v 2.4634 2.4633 h -4.9266 -4.9266 v 2.4633 2.4634 h -2.4634 -2.4633 v 2.4633 2.4634 h 2.4633 2.4634 v 2.4632 2.4634 h 2.4633 2.4633 v -4.9266 -4.9267 h 4.9266 4.9267 v -2.4634 -2.4633 h 2.4634 2.4634 v -7.39 -7.39 h -2.4634 -2.4634 v -2.46338 -2.46334 h -2.4634 -2.4633 v -2.46328 -2.46334 h 2.4633 2.4634 v -2.4633 -2.46333 h 4.9268 4.9265 v 2.46333 2.4633 h -4.9265 -4.9268 v 2.46334 2.46328 h 2.4634 2.4634 v 2.46334 2.46338 h 2.4633 2.4632 v -2.46338 -2.46334 h 7.3901 7.39 v -2.46328 -2.46334 h 4.9267 4.9266 v -2.4633 -2.46333 h -2.4633 -2.4633 v -2.46334 -2.46333 h -4.9267 -4.9267 v -4.92668 -4.92667 h 2.4633 2.4634 v -2.46332 -2.46334 h -2.4634 -2.4633 v -4.92667 -4.92667 h -2.4633 -2.4634 v 2.46334 2.46333 h -2.4633 -2.4634 v -2.46333 -2.46334 h -2.4632 -2.4633 v -2.46333 -2.46334 h 2.4633 2.4632 v 2.46334 2.46333 h 2.4634 2.4633 v -4.92667 -4.92667 h 2.4634 2.4633 v -2.46334 -2.46333 h 2.4633 2.4634 v 2.46333 2.46334 h 2.4633 2.4634 v 4.92667 4.92667 h 2.4633 2.4633 v -2.46333 -2.46334 h 2.4634 2.4633 v 7.39001 7.39 h -2.4633 -2.4634 v 2.46334 2.46332 h 2.4634 2.4633 v 4.92667 4.92668 h 7.3899 7.39 v -4.92668 -4.92667 h -2.4633 -2.4633 v 2.46334 2.46333 h -2.4634 -2.4632 v -4.92667 -4.92666 h 2.4632 2.4634 v -2.46334 -2.46333 h -2.4634 -2.4632 v -4.92667 -4.92667 h 2.4632 2.4634 v 4.92667 4.92667 h 2.4633 2.4633 v 2.46333 2.46334 h 2.4635 2.4633 v -2.46334 -2.46333 h 2.4634 2.4632 v 4.92667 4.92666 h 2.4633 2.4634 v 2.46334 2.46333 h 2.4633 2.4634 v -2.46333 -2.46334 h 2.4633 2.4633 v 2.46334 2.46333 h 2.4634 2.4633 v -4.92667 -4.92666 h 2.4634 2.4633 v 12.31667 12.31664 h -2.4633 -2.4634 v 7.38996 7.38998 h -2.4633 -2.4634 v -14.77994 -14.77998 h -2.4633 -2.4633 v 9.85335 9.85325 h -2.4634 -2.4633 v 4.92672 4.9266 h 2.4633 2.4634 v 2.4634 2.4633 h 7.39 7.39 v 2.4634 2.4633 h -2.4633 -2.4634 v 2.4633 2.4634 h -2.4633 -2.4634 v -2.4634 -2.4633 h -2.4633 -2.4633 v -2.4633 -2.4634 h -2.4634 -2.4633 v -2.4633 -2.4634 h -2.4634 -2.4633 v 2.4634 2.4633 h -2.4632 -2.4634 v 2.4634 2.4633 h 2.4634 2.4632 v 2.4633 2.4634 h 2.4633 2.4634 v 2.4633 2.4634 h 9.8533 9.8534 v 4.9266 4.9267 h -2.4633 -2.4634 v -2.4633 -2.4634 h -2.4633 -2.4634 v 2.4634 2.4633 h -2.4633 -2.4633 v 7.3899 7.39 h 4.9266 4.9267 v -2.4633 -2.4633 h -2.4633 -2.4634 v -2.4634 -2.4632 h 2.4634 2.4633 v 2.4632 2.4634 h 2.4634 2.4633 v 2.4633 2.4633 h -2.4633 -2.4634 v 2.4634 2.4633 h -7.39 -7.39 v 2.4635 2.4632 h 2.4633 2.4634 v 2.4633 2.4634 h 4.9266 4.9267 v 2.4633 2.4634 h 2.4634 2.4633 v 2.4633 2.4633 h -2.4633 -2.4634 v -2.4633 -2.4633 h -2.4633 -2.4634 v 2.4633 2.4633 h -2.4633 -2.4633 v -4.9266 -4.9267 h -2.4634 -2.4633 v 4.9267 4.9266 h -2.4634 -2.4633 v -4.9266 -4.9267 h -2.4632 -2.4634 v 2.4633 2.4634 h -2.4633 -2.4635 v -2.4634 -2.4633 h -4.9266 -4.9266 v 2.4633 2.4634 h -2.4633 -2.4634 v -2.4634 -2.4633 h -2.4633 -2.4634 v -2.4634 -2.4633 h 2.4634 2.4633 v 2.4633 2.4634 h 2.4634 2.4633 v -12.3167 -12.3166 h 9.8532 9.8534 v -2.4633 -2.4634 h -4.9266 -4.9268 v -2.4633 -2.4634 h 7.3902 7.3899 v -2.4634 -2.4632 h -2.4634 -2.4633 v -2.4634 -2.4633 h -2.4632 -2.4634 v -2.4634 -2.4633 h -4.9268 -4.9266 v 2.4633 2.4634 h 2.4633 2.4633 v 2.4633 2.4634 h -2.4633 -2.4633 v 4.9266 4.9267 h -2.4634 -2.4632 v -4.9267 -4.9266 h -4.9267 -4.9267 v 4.9266 4.9267 h 2.4634 2.4633 v 2.4634 2.4633 h -2.4633 -2.4634 v 2.4632 2.4634 h 2.4634 2.4633 v 2.4633 2.4633 h -2.4633 -2.4634 v 2.4634 2.4633 h -2.4633 -2.4633 v 2.4635 2.4632 h -4.9267 -4.9267 v -2.4632 -2.4635 h 2.4633 2.4634 v -2.4633 -2.4634 h -2.4634 -2.4633 v -4.9266 -4.9266 h 4.9267 4.9267 v -2.4633 -2.4634 h -2.4634 -2.4633 v -2.4633 -2.4634 h -4.9267 -4.9267 v 2.4634 2.4633 h -2.4633 -2.4634 v 2.4634 2.4633 h 2.4634 2.4633 v 2.4632 2.4634 h -2.4633 -2.4634 v -2.4634 -2.4632 h -2.4632 -2.4633 v 4.9266 4.9266 h 2.4633 2.4632 v 7.3902 7.3899 h 2.4634 2.4633 v 2.4633 2.4634 h 2.4634 2.4633 v -2.4634 -2.4633 h 4.9267 4.9267 v 2.4633 2.4634 h 2.4633 2.4633 v 7.39 7.39 h -2.4633 -2.4633 v -7.39 -7.39 h -4.9267 -4.9267 v 4.9266 4.9267 h -4.9267 -4.9267 v 2.4633 2.4634 h -2.4632 -2.4633 v -2.4634 -2.4633 h -2.4634 -2.4634 v 2.4633 2.4634 h -2.4634 -2.4633 v -7.39 -7.39 h -2.4632 -2.4634 v 4.9266 4.9267 h -2.4633 -2.4633 v -9.8533 -9.8534 h -2.4634 -2.4633 v 7.39 7.39 h -2.4634 -2.4633 v 2.4634 2.4633 h 2.4633 2.4634 v 2.4633 2.4634 h -2.4634 -2.4633 v -2.4634 -2.4633 h -2.4633 -2.4634 v 2.4633 2.4634 h -2.4633 -2.4634 z m 49.2667,-9.8533 v -2.4633 h -2.4633 -2.4634 v -2.4634 -2.4633 h -2.4632 -2.4633 v 2.4633 2.4634 h -2.4634 -2.4634 v 2.4633 2.4633 h 7.3901 7.3899 z m -39.4133,-4.9267 v -2.4633 h -2.4633 -2.4634 v 2.4633 2.4634 h 2.4634 2.4633 z m 19.7066,-4.9267 v -2.4633 h -2.4632 -2.4634 v -7.39 -7.39 h 2.4634 2.4632 v 2.4633 2.4633 h 2.4633 2.4634 v 4.9267 4.9267 h 2.4634 2.4634 v -4.9267 -4.9267 h -2.4634 -2.4634 v -4.9266 -4.9266 h 2.4634 2.4634 v -2.4633 -2.4634 h 2.4633 2.4632 v -2.4633 -2.4634 h 2.4634 2.4633 v -2.4634 -2.4632 h -2.4633 -2.4634 v 2.4632 2.4634 h -2.4632 -2.4633 v 2.4634 2.4633 h -2.4634 -2.4634 v 2.4634 2.4633 h -4.9267 -4.9266 v -2.4633 -2.4634 h 2.4634 2.4632 v -2.4633 -2.4634 h 2.4633 2.4634 v -2.4634 -2.4632 h 2.4634 2.4634 v -2.4634 -2.4633 h -2.4634 -2.4634 v 2.4633 2.4634 h -2.4634 -2.4633 v 2.4632 2.4634 h -2.4632 -2.4634 v 2.4634 2.4633 h -2.4633 -2.4633 v -2.4633 -2.4634 h -2.4634 -2.4633 v 2.4634 2.4633 h -2.4634 -2.4633 v -2.4633 -2.4634 h -2.4633 -2.4634 v 2.4634 2.4633 h 2.4634 2.4633 v 2.4634 2.4633 h 2.4633 2.4634 v -2.4633 -2.4634 h 2.4633 2.4634 v 4.9267 4.9266 h -4.9267 -4.9267 v 2.4633 2.4633 h 4.9267 4.9267 v 4.9267 4.9267 h 2.4633 2.4633 v 2.4633 2.4634 h 2.4634 2.4632 z m 68.9734,-9.8533 v -7.39 h -7.3899 -7.3901 v 7.39 7.39 h 7.3901 7.3899 z m -9.8534,0 v -2.4634 h 2.4635 2.4633 v 2.4634 2.4633 h -2.4633 -2.4635 z m -19.7066,-4.9267 v -2.4633 h -4.9266 -4.9267 v 2.4633 2.4633 h 4.9267 4.9266 z m 0,-24.6333 v -2.4633 h -4.9266 -4.9267 v 2.4633 2.4634 h 4.9267 4.9266 z m -59.12,-4.9267 v -2.4633 h 2.4633 2.4634 v -2.4633 -2.4634 h 2.4633 2.4634 v -4.9267 -4.9266 h -2.4634 -2.4633 v -4.92672 -4.92662 h -7.39 -7.3901 v 7.38996 7.38998 h 2.4634 2.4633 v 2.4634 2.4633 h -4.9267 -4.9266 v 2.4634 2.4633 h 4.9266 4.9267 v 2.4633 2.4634 h 2.4634 2.4633 z m -4.9267,-4.9266 v -2.4634 h 2.4634 2.4633 v 2.4634 2.4633 h -2.4633 -2.4634 z m 44.34,0 v -2.4634 h 2.4634 2.4633 v 2.4634 2.4633 h 12.3167 12.3167 v -2.4633 -2.4634 h -2.4633 -2.4634 v -2.4633 -2.4634 h 2.4634 2.4633 v -2.4633 -2.4633 h 2.4632 2.4634 v 2.4633 2.4633 h 2.4633 2.4633 v 2.4634 2.4633 h 2.4635 2.4633 v -2.4633 -2.4634 h 2.4634 2.4632 v -9.85332 -9.85325 h 2.4633 2.4634 v -2.46334 -2.46333 h -2.4634 -2.4633 v -2.46334 -2.46334 h -2.4632 -2.4634 v 14.77998 14.77994 h -2.4633 -2.4635 v -4.9266 -4.92672 h -2.4633 -2.4633 v -2.46328 -2.46334 h 2.4633 2.4633 v -2.4633 -2.46333 h -2.4633 -2.4633 v 2.46333 2.4633 h -2.4634 -2.4632 v -2.4633 -2.46333 h -2.4633 -2.4634 v -2.46334 -2.46333 h -2.4633 -2.4634 v 2.46333 2.46334 h 2.4634 2.4633 v 2.46333 2.4633 h -2.4633 -2.4634 v 4.92662 4.92672 h 2.4634 2.4633 v 2.4633 2.4633 h -7.39 -7.39 v 2.4634 2.4633 h -2.4634 -2.4633 v -4.9267 -4.9266 h -2.4633 -2.4634 v 2.4633 2.4633 h -2.4633 -2.4634 v 4.9267 4.9267 h 2.4634 2.4633 z m 24.6334,-17.24342 v -4.92662 h 2.4634 2.4633 v 4.92662 4.92672 h -2.4633 -2.4634 z m -9.8533,2.46334 v -2.46334 h -2.4634 -2.4633 v 2.46334 2.46338 h 2.4633 2.4634 z m -93.6067,-4.92662 v -2.46334 h -2.4634 -2.4633 v 2.46334 2.46328 h 2.4633 2.4634 z m 44.34,-9.85331 v -2.46333 h 2.4633 2.4634 v -4.92668 -4.92667 h -4.9267 -4.9267 v -2.46332 -2.46334 h 2.4633 2.4634 v -2.46334 -2.46333 h -2.4634 -2.4633 v 2.46333 2.46334 h -4.9267 -4.9267 v 2.46334 2.46332 h -2.4633 -2.4633 v -2.46332 -2.46334 h -2.4634 -2.4633 v 2.46334 2.46332 h 2.4633 2.4634 v 2.46334 2.46333 h -2.4634 -2.4633 v 2.46334 2.46334 h 2.4633 2.4634 v -2.46334 -2.46334 h 2.4633 2.4633 v 2.46334 2.46334 h 2.4634 2.4633 v 2.46333 2.46334 h 4.9267 4.9267 z m -9.8534,-4.92667 v -2.46334 h 2.4634 2.4633 v 2.46334 2.46334 h -2.4633 -2.4634 z m 64.0467,-4.92667 v -2.46334 h -4.9266 -4.9267 v 2.46334 2.46333 h 4.9267 4.9266 z m -4.9266,-9.85334 v -2.46333 h -2.4634 -2.4633 v 2.46333 2.46334 h 2.4633 2.4634 z m -44.34,-9.85333 v -2.46334 h -2.4634 -2.4633 v 2.46334 2.46333 h 2.4633 2.4634 z m 39.4133,-2.46334 v -4.92667 h -2.4634 -2.4633 v 4.92667 4.92667 h 2.4633 2.4634 z m -14.7801,-12.31668 v -2.46333 h -2.4632 -2.4633 v 2.46333 2.46334 h 2.4633 2.4632 z m -24.6332,-9.85333 v -2.46334 h -2.4634 -2.4633 v 2.46334 2.46333 h 2.4633 2.4634 z m 59.12,152.72667 v -2.4633 h 2.4632 2.4634 v -2.4633 -2.4634 h 4.9266 4.9268 v 4.9267 4.9267 h -7.3901 -7.3899 z m 19.7066,0 v -2.4633 h 2.4633 2.4634 v 2.4633 2.4634 h -2.4634 -2.4633 z m 9.8534,0 v -2.4633 h 4.9266 4.9267 v 2.4633 2.4634 h -4.9267 -4.9266 z m -147.8001,-39.4134 v -2.4632 h 2.4633 2.4634 v -2.4633 -2.4634 h -2.4634 -2.4633 v -2.4633 -2.4634 h 2.4633 2.4634 v -4.9266 -4.9267 h -2.4634 -2.4633 v -4.9267 -4.9267 h 2.4633 2.4634 v 2.4634 2.4633 h 2.4633 2.4634 v -2.4633 -2.4634 h 2.4633 2.4632 v -2.4633 -2.4634 h 2.4634 2.4633 v 2.4634 2.4633 h -2.4633 -2.4634 v 2.4634 2.4633 h 4.9267 4.9268 v 2.4633 2.4634 h -4.9268 -4.9267 v 2.4633 2.4634 h 4.9267 4.9268 v 4.9266 4.9267 h -4.9268 -4.9267 v 2.4634 2.4633 h -4.9265 -4.9267 v 2.4632 2.4634 h -2.4634 -2.4633 z m 14.7799,-14.78 v -2.4632 h -2.4632 -2.4633 v 2.4632 2.4634 h 2.4633 2.4632 z m 0,-9.8533 v -2.4633 h -2.4632 -2.4633 v 2.4633 2.4634 h 2.4633 2.4632 z m 54.1934,-39.41328 v -2.46334 h 2.4633 2.4634 v 2.46334 2.46334 h -2.4634 -2.4633 z m 9.8535,0 v -2.46334 h 2.4633 2.4632 v -2.46333 -2.46334 h -2.4632 -2.4633 v -2.46332 -2.46334 h -4.9268 -4.9267 v -7.39 -7.39001 h 2.4633 2.4634 v 4.92667 4.92667 h 2.4634 2.4634 v 2.46333 2.46334 h 2.4633 2.4632 v 2.46334 2.46332 h 2.4634 2.4633 v 4.92667 4.92668 h -4.9267 -4.9265 z m -78.8268,-12.31667 v -4.92667 h 2.4633 2.4634 v 4.92667 4.92666 h -2.4634 -2.4633 z m 0,-27.09669 v -17.24333 h 17.2433 17.2434 v 17.24333 17.24335 h -17.2434 -17.2433 z m 29.2422,0 v -11.99882 h -11.9989 -11.9988 v 11.99882 11.99883 h 11.9988 11.9989 z m -19.3888,0 v -7.39 h 7.3899 7.3901 v 7.39 7.39001 h -7.3901 -7.3899 z m 118.2399,0 v -17.24333 h 17.2434 17.2434 v 17.24333 17.24335 h -17.2434 -17.2434 z m 29.2422,0 v -11.99882 h -11.9988 -11.9988 v 11.99882 11.99883 h 11.9988 11.9988 z m -19.3888,0 v -7.39 h 7.39 7.39 v 7.39 7.39001 h -7.39 -7.39 z m -24.6333,4.92667 v -2.46333 h -2.4633 -2.4634 v -4.92667 -4.92667 h 2.4634 2.4633 v -2.46333 -2.46334 h -4.9267 -4.9266 v -2.46333 -2.46333 h 7.39 7.39 v 2.46333 2.46333 h 2.4632 2.4634 v 2.46334 2.46333 h -2.4634 -2.4632 v 7.39 7.39001 h -2.4633 -2.4634 z m -19.7067,-9.85333 v -2.46334 h 4.9267 4.9267 v 2.46334 2.46333 h -4.9267 -4.9267 z m 0,-9.85334 v -2.46333 h 2.4633 2.4634 v 2.46333 2.46333 h -2.4634 -2.4633 z"
       id="path1-3" /></g></svg>
