<?xml version="1.0" encoding="UTF-8" standalone="no"?>
<svg
   viewBox="0 0 1134.6158 2268.4759"
   width="1134.6158"
   height="2268.4758"
   version="1.1"
   id="svg92"
   sodipodi:docname="back_plane_right.svg"
   xml:space="preserve"
   inkscape:version="1.3 (0e150ed6c4, 2023-07-21)"
   xmlns:inkscape="http://www.inkscape.org/namespaces/inkscape"
   xmlns:sodipodi="http://sodipodi.sourceforge.net/DTD/sodipodi-0.dtd"
   xmlns="http://www.w3.org/2000/svg"
   xmlns:svg="http://www.w3.org/2000/svg"><sodipodi:namedview
     id="namedview92"
     pagecolor="#ffffff"
     bordercolor="#000000"
     borderopacity="0.25"
     inkscape:showpageshadow="2"
     inkscape:pageopacity="0.0"
     inkscape:pagecheckerboard="0"
     inkscape:deskcolor="#d1d1d1"
     inkscape:zoom="0.25606581"
     inkscape:cx="142.54148"
     inkscape:cy="1189.1474"
     inkscape:window-width="1920"
     inkscape:window-height="1009"
     inkscape:window-x="-8"
     inkscape:window-y="-8"
     inkscape:window-maximized="1"
     inkscape:current-layer="g92" /><desc
     id="desc1">back_plane_right.DXF - scale = 1.000000, origin = (0.000000, 0.000000), method = manual</desc><defs
     id="defs4"><marker
       id="DistanceX"
       orient="auto"
       refX="0"
       refY="0"
       style="overflow:visible"><path
         d="M 3,-3 -3,3 M 0,-5 V 5"
         style="stroke:#000000;stroke-width:0.5"
         id="path1" /></marker><pattern
       id="Hatch"
       patternUnits="userSpaceOnUse"
       width="8"
       height="8"
       x="0"
       y="0"><path
         d="M8 4 l-4,4"
         stroke="#000000"
         stroke-width="0.25"
         linecap="square"
         id="path2" /><path
         d="M6 2 l-4,4"
         stroke="#000000"
         stroke-width="0.25"
         linecap="square"
         id="path3" /><path
         d="M4 0 l-4,4"
         stroke="#000000"
         stroke-width="0.25"
         linecap="square"
         id="path4" /></pattern><symbol
       id="*Model_Space" /><symbol
       id="*Paper_Space" /><symbol
       id="*Paper_Space0" /></defs><g
     inkscape:groupmode="layer"
     inkscape:label="0"
     id="g92"
     transform="translate(-1110.802,1122.898)"><path
       style="fill:none;stroke:#ff0000;stroke-width:0.755906;stroke-linecap:round;stroke-dasharray:none;stroke-opacity:1"
       d="m 1338.14,-755.339 v 23.056"
       id="path5" /><path
       style="fill:none;stroke:#ff0000;stroke-width:0.755906;stroke-linecap:round;stroke-dasharray:none;stroke-opacity:1"
       d="M 1338.14,-732.283 H 1261.8"
       id="path6" /><path
       style="fill:none;stroke:#ff0000;stroke-width:0.755906;stroke-linecap:round;stroke-dasharray:none;stroke-opacity:1"
       d="m 1261.8,-732.283 v -23.056"
       id="path7" /><path
       style="fill:none;stroke:#ff0000;stroke-width:0.755906;stroke-linecap:round;stroke-dasharray:none;stroke-opacity:1"
       d="m 1261.8,-755.339 h 76.34"
       id="path8" /><path
       style="fill:none;stroke:#ff0000;stroke-width:0.755906;stroke-linecap:round;stroke-dasharray:none;stroke-opacity:1"
       d="m 1338.14,-377.764 v 23.055"
       id="path9" /><path
       style="fill:none;stroke:#ff0000;stroke-width:0.755906;stroke-linecap:round;stroke-dasharray:none;stroke-opacity:1"
       d="M 1338.14,-354.709 H 1261.8"
       id="path10" /><path
       style="fill:none;stroke:#ff0000;stroke-width:0.755906;stroke-linecap:round;stroke-dasharray:none;stroke-opacity:1"
       d="m 1261.8,-354.709 v -23.055"
       id="path11" /><path
       style="fill:none;stroke:#ff0000;stroke-width:0.755906;stroke-linecap:round;stroke-dasharray:none;stroke-opacity:1"
       d="m 1261.8,-377.764 h 76.34"
       id="path12" /><path
       style="fill:none;stroke:#ff0000;stroke-width:0.755906;stroke-linecap:round;stroke-dasharray:none;stroke-opacity:1"
       d="m 1338.14,754.961 v 23.055"
       id="path13" /><path
       style="fill:none;stroke:#ff0000;stroke-width:0.755906;stroke-linecap:round;stroke-dasharray:none;stroke-opacity:1"
       d="M 1338.14,778.016 H 1261.8"
       id="path14" /><path
       style="fill:none;stroke:#ff0000;stroke-width:0.755906;stroke-linecap:round;stroke-dasharray:none;stroke-opacity:1"
       d="M 1261.8,778.016 V 754.961"
       id="path15" /><path
       style="fill:none;stroke:#ff0000;stroke-width:0.755906;stroke-linecap:round;stroke-dasharray:none;stroke-opacity:1"
       d="m 1261.8,754.961 h 76.34"
       id="path16" /><path
       style="fill:none;stroke:#ff0000;stroke-width:0.755906;stroke-linecap:round;stroke-dasharray:none;stroke-opacity:1"
       d="m 1338.14,377.386 v 23.055"
       id="path17" /><path
       style="fill:none;stroke:#ff0000;stroke-width:0.755906;stroke-linecap:round;stroke-dasharray:none;stroke-opacity:1"
       d="M 1338.14,400.441 H 1261.8"
       id="path18" /><path
       style="fill:none;stroke:#ff0000;stroke-width:0.755906;stroke-linecap:round;stroke-dasharray:none;stroke-opacity:1"
       d="M 1261.8,400.441 V 377.386"
       id="path19" /><path
       style="fill:none;stroke:#ff0000;stroke-width:0.755906;stroke-linecap:round;stroke-dasharray:none;stroke-opacity:1"
       d="m 1261.8,377.386 h 76.34"
       id="path20" /><path
       style="fill:none;stroke:#ff0000;stroke-width:0.755906;stroke-linecap:round;stroke-dasharray:none;stroke-opacity:1"
       d="M 1338.14,-0.188976 V 22.8661"
       id="path21" /><path
       style="fill:none;stroke:#ff0000;stroke-width:0.755906;stroke-linecap:round;stroke-dasharray:none;stroke-opacity:1"
       d="M 1338.14,22.8661 H 1261.8"
       id="path22" /><path
       style="fill:none;stroke:#ff0000;stroke-width:0.755906;stroke-linecap:round;stroke-dasharray:none;stroke-opacity:1"
       d="M 1261.8,22.8661 V -0.188976"
       id="path23" /><path
       style="fill:none;stroke:#ff0000;stroke-width:0.755906;stroke-linecap:round;stroke-dasharray:none;stroke-opacity:1"
       d="m 1261.8,-0.188976 h 76.34"
       id="path24" /><path
       style="fill:none;stroke:#ff0000;stroke-width:0.755906;stroke-linecap:round;stroke-dasharray:none;stroke-opacity:1"
       d="M 1841.57,-0.188976 V 22.8661"
       id="path25" /><path
       style="fill:none;stroke:#ff0000;stroke-width:0.755906;stroke-linecap:round;stroke-dasharray:none;stroke-opacity:1"
       d="m 1841.57,22.8661 h -76.34"
       id="path26" /><path
       style="fill:none;stroke:#ff0000;stroke-width:0.755906;stroke-linecap:round;stroke-dasharray:none;stroke-opacity:1"
       d="M 1765.23,22.8661 V -0.188976"
       id="path27" /><path
       style="fill:none;stroke:#ff0000;stroke-width:0.755906;stroke-linecap:round;stroke-dasharray:none;stroke-opacity:1"
       d="m 1765.23,-0.188976 h 76.34"
       id="path28" /><path
       style="fill:none;stroke:#ff0000;stroke-width:0.755906;stroke-linecap:round;stroke-dasharray:none;stroke-opacity:1"
       d="m 1841.57,377.386 v 23.055"
       id="path29" /><path
       style="fill:none;stroke:#ff0000;stroke-width:0.755906;stroke-linecap:round;stroke-dasharray:none;stroke-opacity:1"
       d="m 1841.57,400.441 h -76.34"
       id="path30" /><path
       style="fill:none;stroke:#ff0000;stroke-width:0.755906;stroke-linecap:round;stroke-dasharray:none;stroke-opacity:1"
       d="M 1765.23,400.441 V 377.386"
       id="path31" /><path
       style="fill:none;stroke:#ff0000;stroke-width:0.755906;stroke-linecap:round;stroke-dasharray:none;stroke-opacity:1"
       d="m 1765.23,377.386 h 76.34"
       id="path32" /><path
       style="fill:none;stroke:#ff0000;stroke-width:0.755906;stroke-linecap:round;stroke-dasharray:none;stroke-opacity:1"
       d="m 1841.57,754.961 v 23.055"
       id="path33" /><path
       style="fill:none;stroke:#ff0000;stroke-width:0.755906;stroke-linecap:round;stroke-dasharray:none;stroke-opacity:1"
       d="m 1841.57,778.016 h -76.34"
       id="path34" /><path
       style="fill:none;stroke:#ff0000;stroke-width:0.755906;stroke-linecap:round;stroke-dasharray:none;stroke-opacity:1"
       d="M 1765.23,778.016 V 754.961"
       id="path35" /><path
       style="fill:none;stroke:#ff0000;stroke-width:0.755906;stroke-linecap:round;stroke-dasharray:none;stroke-opacity:1"
       d="m 1765.23,754.961 h 76.34"
       id="path36" /><path
       style="fill:none;stroke:#ff0000;stroke-width:0.755906;stroke-linecap:round;stroke-dasharray:none;stroke-opacity:1"
       d="m 1841.57,-377.764 v 23.055"
       id="path37" /><path
       style="fill:none;stroke:#ff0000;stroke-width:0.755906;stroke-linecap:round;stroke-dasharray:none;stroke-opacity:1"
       d="m 1841.57,-354.709 h -76.34"
       id="path38" /><path
       style="fill:none;stroke:#ff0000;stroke-width:0.755906;stroke-linecap:round;stroke-dasharray:none;stroke-opacity:1"
       d="m 1765.23,-354.709 v -23.055"
       id="path39" /><path
       style="fill:none;stroke:#ff0000;stroke-width:0.755906;stroke-linecap:round;stroke-dasharray:none;stroke-opacity:1"
       d="m 1765.23,-377.764 h 76.34"
       id="path40" /><path
       style="fill:none;stroke:#ff0000;stroke-width:0.755906;stroke-linecap:round;stroke-dasharray:none;stroke-opacity:1"
       d="m 1841.57,-755.339 v 23.056"
       id="path41" /><path
       style="fill:none;stroke:#ff0000;stroke-width:0.755906;stroke-linecap:round;stroke-dasharray:none;stroke-opacity:1"
       d="m 1841.57,-732.283 h -76.34"
       id="path42" /><path
       style="fill:none;stroke:#ff0000;stroke-width:0.755906;stroke-linecap:round;stroke-dasharray:none;stroke-opacity:1"
       d="m 1765.23,-732.283 v -23.056"
       id="path43" /><path
       style="fill:none;stroke:#ff0000;stroke-width:0.755906;stroke-linecap:round;stroke-dasharray:none;stroke-opacity:1"
       d="m 1765.23,-755.339 h 76.34"
       id="path44" /><path
       d="m 1337.9528,-207.87402 a 7.5591,7.5591 0 0 0 -15.1182,0 7.5591,7.5591 0 0 0 15.1182,0 z"
       style="fill:none;stroke:#ff0000;stroke-width:0.755906;stroke-linecap:round;stroke-dasharray:none;stroke-opacity:1"
       id="path45" /><path
       d="m 1337.9528,230.55118 a 7.5591,7.5591 0 0 0 -15.1182,0 7.5591,7.5591 0 0 0 15.1182,0 z"
       style="fill:none;stroke:#ff0000;stroke-width:0.755906;stroke-linecap:round;stroke-dasharray:none;stroke-opacity:1"
       id="path46" /><path
       d="m 1345.5118,929.76378 a 7.559055,7.559055 0 0 0 -15.1181,0 7.559055,7.559055 0 0 0 15.1181,0 z"
       style="fill:none;stroke:#ff0000;stroke-width:0.755906;stroke-linecap:round;stroke-dasharray:none;stroke-opacity:1"
       id="path47" /><path
       d="m 1345.5118,476.22047 a 7.559055,7.559055 0 0 0 -15.1181,0 7.559055,7.559055 0 0 0 15.1181,0 z"
       style="fill:none;stroke:#ff0000;stroke-width:0.755906;stroke-linecap:round;stroke-dasharray:none;stroke-opacity:1"
       id="path48" /><path
       d="m 1402.2047,986.45669 a 7.559055,7.559055 0 0 0 -15.1181,0 7.559055,7.559055 0 0 0 15.1181,0 z"
       style="fill:none;stroke:#ff0000;stroke-width:0.755906;stroke-linecap:round;stroke-dasharray:none;stroke-opacity:1"
       id="path49" /><path
       d="m 1402.2047,419.52756 a 7.559055,7.559055 0 0 0 -15.1181,0 7.559055,7.559055 0 0 0 15.1181,0 z"
       style="fill:none;stroke:#ff0000;stroke-width:0.755906;stroke-linecap:round;stroke-dasharray:none;stroke-opacity:1"
       id="path50" /><path
       style="fill:none;stroke:#ff0000;stroke-width:0.755906;stroke-linecap:round;stroke-dasharray:none;stroke-opacity:1"
       d="M 1111.18,41.7638 V 1122.52"
       id="path51" /><path
       style="fill:none;stroke:#ff0000;stroke-width:0.755906;stroke-linecap:round;stroke-dasharray:none;stroke-opacity:1"
       d="m 1111.18,1122.52 h 279.69"
       id="path52" /><path
       style="fill:none;stroke:#ff0000;stroke-width:0.755906;stroke-linecap:round;stroke-dasharray:none;stroke-opacity:1"
       d="m 1390.87,1145.2 v -22.68"
       id="path53" /><path
       style="fill:none;stroke:#ff0000;stroke-width:0.755906;stroke-linecap:round;stroke-dasharray:none;stroke-opacity:1"
       d="m 1466.46,1145.2 h -75.59"
       id="path54" /><path
       style="fill:none;stroke:#ff0000;stroke-width:0.755906;stroke-linecap:round;stroke-dasharray:none;stroke-opacity:1"
       d="m 1466.46,1122.52 v 22.68"
       id="path55" /><path
       style="fill:none;stroke:#ff0000;stroke-width:0.755906;stroke-linecap:round;stroke-dasharray:none;stroke-opacity:1"
       d="m 1466.46,1122.52 h 551.81"
       id="path56" /><path
       style="fill:none;stroke:#ff0000;stroke-width:0.755906;stroke-linecap:round;stroke-dasharray:none;stroke-opacity:1"
       d="m 2018.27,1145.2 v -22.68"
       id="path57" /><path
       style="fill:none;stroke:#ff0000;stroke-width:0.755906;stroke-linecap:round;stroke-dasharray:none;stroke-opacity:1"
       d="m 2093.86,1145.2 h -75.59"
       id="path58" /><path
       style="fill:none;stroke:#ff0000;stroke-width:0.755906;stroke-linecap:round;stroke-dasharray:none;stroke-opacity:1"
       d="m 2093.86,1122.52 v 22.68"
       id="path59" /><path
       style="fill:none;stroke:#ff0000;stroke-width:0.755906;stroke-linecap:round;stroke-dasharray:none;stroke-opacity:1"
       d="m 2093.86,1122.52 h 128.5"
       id="path60" /><path
       style="fill:none;stroke:#ff0000;stroke-width:0.755906;stroke-linecap:round;stroke-dasharray:none;stroke-opacity:1"
       d="M 2222.36,1122.52 V 994.016"
       id="path61" /><path
       style="fill:none;stroke:#ff0000;stroke-width:0.755906;stroke-linecap:round;stroke-dasharray:none;stroke-opacity:1"
       d="m 2222.36,994.016 h 22.68"
       id="path62" /><path
       style="fill:none;stroke:#ff0000;stroke-width:0.755906;stroke-linecap:round;stroke-dasharray:none;stroke-opacity:1"
       d="M 2245.04,994.016 V 918.425"
       id="path63" /><path
       style="fill:none;stroke:#ff0000;stroke-width:0.755906;stroke-linecap:round;stroke-dasharray:none;stroke-opacity:1"
       d="m 2245.04,918.425 h -22.68"
       id="path64" /><path
       style="fill:none;stroke:#ff0000;stroke-width:0.755906;stroke-linecap:round;stroke-dasharray:none;stroke-opacity:1"
       d="M 2222.36,918.425 V 366.614"
       id="path65" /><path
       style="fill:none;stroke:#ff0000;stroke-width:0.755906;stroke-linecap:round;stroke-dasharray:none;stroke-opacity:1"
       d="m 2222.36,366.614 h 22.68"
       id="path66" /><path
       style="fill:none;stroke:#ff0000;stroke-width:0.755906;stroke-linecap:round;stroke-dasharray:none;stroke-opacity:1"
       d="m 2245.04,366.614 v -75.59"
       id="path67" /><path
       style="fill:none;stroke:#ff0000;stroke-width:0.755906;stroke-linecap:round;stroke-dasharray:none;stroke-opacity:1"
       d="m 2245.04,291.024 h -22.68"
       id="path68" /><path
       style="fill:none;stroke:#ff0000;stroke-width:0.755906;stroke-linecap:round;stroke-dasharray:none;stroke-opacity:1"
       d="m 2222.36,291.024 v -559.37"
       id="path69" /><path
       style="fill:none;stroke:#ff0000;stroke-width:0.755906;stroke-linecap:round;stroke-dasharray:none;stroke-opacity:1"
       d="m 2245.04,-268.346 h -22.68"
       id="path70" /><path
       style="fill:none;stroke:#ff0000;stroke-width:0.755906;stroke-linecap:round;stroke-dasharray:none;stroke-opacity:1"
       d="m 2245.04,-343.937 v 75.591"
       id="path71" /><path
       style="fill:none;stroke:#ff0000;stroke-width:0.755906;stroke-linecap:round;stroke-dasharray:none;stroke-opacity:1"
       d="m 2222.36,-343.937 h 22.68"
       id="path72" /><path
       style="fill:none;stroke:#ff0000;stroke-width:0.755906;stroke-linecap:round;stroke-dasharray:none;stroke-opacity:1"
       d="M 2222.36,-343.937 V -895.748"
       id="path73" /><path
       style="fill:none;stroke:#ff0000;stroke-width:0.755906;stroke-linecap:round;stroke-dasharray:none;stroke-opacity:1"
       d="m 2245.04,-895.748 h -22.68"
       id="path74" /><path
       style="fill:none;stroke:#ff0000;stroke-width:0.755906;stroke-linecap:round;stroke-dasharray:none;stroke-opacity:1"
       d="m 2245.04,-971.339 v 75.591"
       id="path75" /><path
       style="fill:none;stroke:#ff0000;stroke-width:0.755906;stroke-linecap:round;stroke-dasharray:none;stroke-opacity:1"
       d="m 2222.36,-971.339 h 22.68"
       id="path76" /><path
       style="fill:none;stroke:#ff0000;stroke-width:0.755906;stroke-linecap:round;stroke-dasharray:none;stroke-opacity:1"
       d="M 2222.36,-971.339 V -1099.84"
       id="path77" /><path
       style="fill:none;stroke:#ff0000;stroke-width:0.755906;stroke-linecap:round;stroke-dasharray:none;stroke-opacity:1"
       d="m 2222.36,-1099.84 h -128.5"
       id="path78" /><path
       style="fill:none;stroke:#ff0000;stroke-width:0.755906;stroke-linecap:round;stroke-dasharray:none;stroke-opacity:1"
       d="m 2093.86,-1099.84 v -22.68"
       id="path79" /><path
       style="fill:none;stroke:#ff0000;stroke-width:0.755906;stroke-linecap:round;stroke-dasharray:none;stroke-opacity:1"
       d="m 2093.86,-1122.52 h -75.59"
       id="path80" /><path
       style="fill:none;stroke:#ff0000;stroke-width:0.755906;stroke-linecap:round;stroke-dasharray:none;stroke-opacity:1"
       d="m 2018.27,-1122.52 v 22.68"
       id="path81" /><path
       style="fill:none;stroke:#ff0000;stroke-width:0.755906;stroke-linecap:round;stroke-dasharray:none;stroke-opacity:1"
       d="M 2018.27,-1099.84 H 1466.46"
       id="path82" /><path
       style="fill:none;stroke:#ff0000;stroke-width:0.755906;stroke-linecap:round;stroke-dasharray:none;stroke-opacity:1"
       d="m 1466.46,-1099.84 v -22.68"
       id="path83" /><path
       style="fill:none;stroke:#ff0000;stroke-width:0.755906;stroke-linecap:round;stroke-dasharray:none;stroke-opacity:1"
       d="m 1466.46,-1122.52 h -75.59"
       id="path84" /><path
       style="fill:none;stroke:#ff0000;stroke-width:0.755906;stroke-linecap:round;stroke-dasharray:none;stroke-opacity:1"
       d="m 1390.87,-1122.52 v 22.68"
       id="path85" /><path
       style="fill:none;stroke:#ff0000;stroke-width:0.755906;stroke-linecap:round;stroke-dasharray:none;stroke-opacity:1"
       d="M 1390.87,-1099.84 H 1111.18"
       id="path86" /><path
       style="fill:none;stroke:#ff0000;stroke-width:0.755906;stroke-linecap:round;stroke-dasharray:none;stroke-opacity:1"
       d="M 1111.18,-1099.84 V -19.0866"
       id="path87" /><path
       style="fill:none;stroke:#ff0000;stroke-width:0.755906;stroke-linecap:round;stroke-dasharray:none;stroke-opacity:1"
       d="m 1134.05,-19.0866 h -22.87"
       id="path88" /><path
       d="m 1141.6063,-11.527559 a 7.559055,7.559055 0 0 0 -7.5591,-7.559055"
       style="fill:none;stroke:#ff0000;stroke-width:0.755906;stroke-linecap:round;stroke-dasharray:none;stroke-opacity:1"
       id="path89" /><path
       style="fill:none;stroke:#ff0000;stroke-width:0.755906;stroke-linecap:round;stroke-dasharray:none;stroke-opacity:1"
       d="M 1141.61,34.2047 V -11.5276"
       id="path90" /><path
       d="m 1134.0472,41.76378 a 7.559055,7.559055 0 0 0 7.5591,-7.559056"
       style="fill:none;stroke:#ff0000;stroke-width:0.755906;stroke-linecap:round;stroke-dasharray:none;stroke-opacity:1"
       id="path91" /><path
       style="fill:none;stroke:#ff0000;stroke-width:0.755906;stroke-linecap:round;stroke-dasharray:none;stroke-opacity:1"
       d="m 1111.18,41.7638 h 22.87"
       id="path92" /><path
       style="fill:#000000;stroke-width:0.161239"
       d="m 2011.1954,1060.8465 v -17.4944 h 17.4945 17.4944 v 17.4944 17.4945 h -17.4944 -17.4945 z m 29.668,0 v -12.1735 h -12.1735 -12.1736 v 12.1735 12.1736 h 12.1736 12.1735 z m -19.6711,0 v -7.4976 h 7.4976 7.4976 v 7.4976 7.4976 h -7.4976 -7.4976 z m 29.9905,14.9953 v -2.4992 h 2.4992 2.4992 v -4.9985 -4.9984 h -2.4992 -2.4992 v -2.4992 -2.4992 h 2.4992 2.4992 v -2.4992 -2.4992 h -2.4992 -2.4992 v -2.4992 -2.4992 h 4.9984 4.9984 v -2.4993 -2.4991 h -4.9984 -4.9984 v -2.4993 -2.4992 h 2.4992 2.4992 v -4.9984 -4.9984 h -2.4992 -2.4992 v 2.4992 2.4992 h -2.4992 -2.4993 v 2.4993 2.4991 h -2.4991 -2.4993 v -2.4991 -2.4993 h 2.4993 2.4991 v -2.4992 -2.4992 h -2.4991 -2.4993 v -2.4992 -2.4993 h 2.4993 2.4991 v 2.4993 2.4992 h 2.4993 2.4992 v -2.4992 -2.4993 h 2.4992 2.4992 v -4.9984 -4.9983 h -4.9984 -4.9985 v 2.4991 2.4992 h -2.4991 -2.4993 v -2.4992 -2.4991 h 2.4993 2.4991 v -2.4993 -2.4992 h -2.4991 -2.4993 v -2.4992 -2.4992 h 2.4993 2.4991 v -2.4993 -2.49911 h -2.4991 -2.4993 v -2.4992 -2.4993 h 2.4993 2.4991 v -2.4991 -2.4993 h -2.4991 -2.4993 v -2.4992 -2.4992 h 4.9984 4.9985 v -4.99846 -4.99835 h -2.4992 -2.4993 v 2.49918 2.49917 h -2.4991 -2.4993 v -2.49917 -2.49918 h -2.4992 -2.4992 v 2.49918 2.49917 h -2.4992 -2.4992 v 2.49926 2.4992 h -2.4992 -2.4992 v 2.4992 2.4992 h 4.9984 4.9984 v 2.4993 2.4991 h -4.9984 -4.9984 v -2.4991 -2.4993 h -2.4992 -2.4992 v 4.9984 4.9985 h -2.4993 -2.4992 v -2.4992 -2.4993 h -2.4992 -2.4992 v -9.9968 -9.99681 h 2.4992 2.4992 v 2.49918 2.49917 h 2.4992 2.4993 v 2.49926 2.4992 h 2.4992 2.4992 v -4.99846 -4.99835 h -2.4992 -2.4992 v -2.49925 -2.4992 h 2.4992 2.4992 v 2.4992 2.49925 h 2.4992 2.4992 v -7.49766 -7.49763 h -2.4992 -2.4992 v 2.49921 2.4992 h -2.4992 -2.4992 v -2.4992 -2.49921 h 2.4992 2.4992 v -2.49921 -2.49921 h 2.4992 2.4992 v 2.49921 2.49921 h 2.4992 2.4992 v -2.49921 -2.49921 h 4.9984 4.9984 v 2.49921 2.49921 h 2.4993 2.4992 v -2.49921 -2.49921 h 2.4992 2.4992 v -2.49922 -2.4992 h -2.4992 -2.4992 v -4.99843 -4.99841 h 2.4992 2.4992 v -2.49922 -2.4992 h 2.4992 2.4992 v 2.4992 2.49922 h -2.4992 -2.4992 v 4.99841 4.99843 h 2.4992 2.4992 v -2.49921 -2.49922 h 2.4992 2.4993 v -7.49763 -7.49763 h -4.9985 -4.9984 v -2.4992 -2.49922 h 2.4992 2.4992 v -2.49921 -2.4992 h -2.4992 -2.4992 v -2.49922 -2.49921 h 7.4976 7.4977 v 2.49921 2.49922 h 2.4992 2.4991 v 4.99841 4.99842 h 2.4993 2.4992 v -2.4992 -2.49922 h 2.4992 2.4992 v -2.49921 -2.4992 h -2.4992 -2.4992 v -2.49922 -2.49921 h 7.4977 7.4976 v 2.49921 2.49922 h 2.4991 2.4993 v 7.49763 7.49763 h -2.4993 -2.4991 v 2.4992 2.49922 h -2.4992 -2.4993 v -2.49922 -2.4992 h -2.4991 -2.4993 v -2.49922 -2.49921 h -2.4992 -2.4992 v 2.49921 2.49922 h -4.9985 -4.9983 v 4.99842 4.99841 h 2.4992 2.4991 v 2.49922 2.49921 h -2.4991 -2.4992 v 2.4992 2.49922 h 2.4992 2.4991 v 2.49921 2.49921 h -2.4991 -2.4992 v 2.49921 2.4992 h 2.4992 2.4991 v 4.99843 4.99845 h -2.4991 -2.4992 v 2.49918 2.49917 h -2.4993 -2.4991 v 2.49926 2.4992 h 4.9984 4.9983 v 9.9968 9.99691 h 2.4993 2.4992 v 2.4992 2.4992 h -4.9985 -4.9983 v 2.4992 2.4993 h -2.4993 -2.4991 v 2.4991 2.4992 h 2.4991 2.4993 v 2.4993 2.4991 h 2.4992 2.4991 v -4.9984 -4.9983 h 4.9985 4.9984 v -2.4993 -2.4992 h 2.4993 2.4991 v -7.4977 -7.49761 h -2.4991 -2.4993 v -2.4991 -2.4993 h -2.4992 -2.4992 v -2.4992 -2.4992 h 2.4992 2.4992 v -2.4992 -2.49926 h 4.9984 4.9985 v 2.49926 2.4992 h -4.9985 -4.9984 v 2.4992 2.4992 h 2.4993 2.4991 v 2.4993 2.4991 h 2.4993 2.4992 v -2.4991 -2.4993 h 7.4976 7.4977 v -2.4992 -2.4992 h 4.9983 4.9984 v -2.4992 -2.49926 h -2.4991 -2.4993 v -2.49917 -2.49918 h -4.9983 -4.9985 v -4.99845 -4.99843 h 2.4992 2.4993 v -2.4992 -2.49921 h -2.4993 -2.4992 v -4.99842 -4.99842 h -2.4992 -2.4992 v 2.4992 2.49922 h -2.4993 -2.4991 v -2.49922 -2.4992 h -2.4992 -2.4993 v -2.49921 -2.49922 h 2.4993 2.4992 v 2.49922 2.49921 h 2.4991 2.4993 v -4.99843 -4.99841 h 2.4992 2.4992 v -2.49922 -2.4992 h 2.4992 2.4993 v 2.4992 2.49922 h 2.4991 2.4992 v 4.99841 4.99843 h 2.4993 2.4991 v -2.49921 -2.49922 h 2.4993 2.4992 v 7.49763 7.49764 h -2.4992 -2.4993 v 2.49921 2.4992 h 2.4993 2.4992 v 4.99843 4.99845 h 7.4977 7.4976 v -4.99845 -4.99843 h -2.4993 -2.4992 v 2.49922 2.49921 h -2.4991 -2.4993 v -4.99843 -4.99841 h 2.4993 2.4991 v -2.49921 -2.49921 h -2.4991 -2.4993 v -4.99842 -4.99843 h 2.4993 2.4991 v 4.99843 4.99842 h 2.4992 2.4993 v 2.49921 2.49921 h 2.4991 2.4993 v -2.49921 -2.49921 h 2.4992 2.4992 v 4.99842 4.99841 h 2.4992 2.4992 v 2.49922 2.49921 h 2.4992 2.4992 v -2.49921 -2.49922 h 2.4993 2.4991 v 2.49922 2.49921 h 2.4993 2.4992 v -4.99843 -4.99841 h 2.4992 2.4992 v 12.49604 12.49606 h -2.4992 -2.4992 v 7.4977 7.4976 h -2.4992 -2.4993 v -14.9953 -14.99526 h -2.4991 -2.4993 v 9.9968 9.99686 h -2.4992 -2.4992 v 4.9984 4.9985 h 2.4992 2.4992 v 2.49911 2.4993 h 7.4977 7.4976 v 2.4992 2.4992 h -2.4992 -2.4992 v 2.4992 2.4993 h -2.4992 -2.4993 v -2.4993 -2.4992 h -2.4991 -2.4993 v -2.4992 -2.4992 h -2.4992 -2.4992 v -2.4993 -2.49911 h -2.4992 -2.4992 v 2.49911 2.4993 h -2.4992 -2.4992 v 2.4992 2.4992 h 2.4992 2.4992 v 2.4992 2.4993 h 2.4992 2.4992 v 2.4991 2.4992 h 9.9968 9.9969 v 4.9984 4.9985 h -2.4992 -2.4992 v -2.4992 -2.4993 h -2.4992 -2.4993 v 2.4993 2.4992 h -2.4991 -2.4993 v 7.4977 7.4976 h 4.9984 4.9985 v -2.4993 -2.4992 h -2.4992 -2.4993 v -2.4991 -2.4993 h 2.4993 2.4992 v 2.4993 2.4991 h 2.4992 2.4992 v 2.4992 2.4993 h -2.4992 -2.4992 v 2.4991 2.4993 h -7.4976 -7.4977 v 2.4992 2.4992 h 2.4992 2.4992 v 2.4992 2.4992 h 4.9984 4.9985 v 2.4992 2.4992 h 2.4992 2.4992 v 2.4993 2.4991 h -2.4992 -2.4992 v -2.4991 -2.4993 h -2.4992 -2.4993 v 2.4993 2.4991 h -2.4991 -2.4993 v -4.9984 -4.9984 h -2.4992 -2.4992 v 4.9984 4.9984 h -2.4992 -2.4992 v -4.9984 -4.9984 h -2.4992 -2.4992 v 2.4992 2.4992 h -2.4993 -2.4991 v -2.4992 -2.4992 h -4.9985 -4.9984 v 2.4992 2.4992 h -2.4992 -2.4992 v -2.4992 -2.4992 h -2.4992 -2.4993 v -2.4992 -2.4992 h 2.4993 2.4992 v 2.4992 2.4992 h 2.4992 2.4992 v -12.4961 -12.496 h 9.9969 9.9968 v -2.4992 -2.4992 h -4.9984 -4.9984 v -2.4992 -2.4993 h 7.4976 7.4976 v -2.4991 -2.4993 h -2.4992 -2.4992 v -2.4992 -2.4991 h -2.4992 -2.4992 v -2.4993 -2.4992 h -4.9984 -4.9985 v 2.4992 2.4993 h 2.4992 2.4993 v 2.4991 2.4992 h -2.4993 -2.4992 v 4.9984 4.9985 h -2.4991 -2.4993 v -4.9985 -4.9984 h -4.9984 -4.9985 v 4.9984 4.9985 h 2.4993 2.4992 v 2.4992 2.4992 h -2.4992 -2.4993 v 2.4993 2.4991 h 2.4993 2.4992 v 2.4992 2.4993 h -2.4992 -2.4993 v 2.4991 2.4993 h -2.4991 -2.4993 v 2.4992 2.4992 h -4.9983 -4.9985 v -2.4992 -2.4992 h 2.4992 2.4993 v -2.4993 -2.4991 h -2.4993 -2.4992 v -4.9985 -4.9984 h 4.9985 4.9983 v -2.4992 -2.4992 h -2.4992 -2.4991 v -2.4992 -2.4993 h -4.9985 -4.9984 v 2.4993 2.4992 h -2.4993 -2.4991 v 2.4992 2.4992 h 2.4991 2.4993 v 2.4993 2.4991 h -2.4993 -2.4991 v -2.4991 -2.4993 h -2.4992 -2.4993 v 4.9984 4.9985 h 2.4993 2.4992 v 7.4976 7.4976 h 2.4991 2.4993 v 2.4992 2.4992 h 2.4992 2.4992 v -2.4992 -2.4992 h 4.9985 4.9983 v 2.4992 2.4992 h 2.4993 2.4991 v 7.4977 7.4976 h -2.4991 -2.4993 v -7.4976 -7.4977 h -4.9983 -4.9985 v 4.9984 4.9985 h -4.9984 -4.9984 v 2.4992 2.4992 h -2.4992 -2.4993 v -2.4992 -2.4992 h -2.4991 -2.4993 v 2.4992 2.4992 h -2.4992 -2.4992 v -7.4976 -7.4977 h -2.4992 -2.4993 v 4.9984 4.9985 h -2.4991 -2.4992 v -9.9969 -9.9968 h -2.4993 -2.4991 v 7.4976 7.4976 h -2.4993 -2.4992 v 2.4993 2.4992 h 2.4992 2.4993 v 2.4992 2.4992 h -2.4993 -2.4992 v -2.4992 -2.4992 h -2.4992 -2.4992 v 2.4992 2.4992 h -2.4992 -2.4992 z m 49.9842,-9.9968 v -2.4993 h -2.4993 -2.4991 v -2.4992 -2.4992 h -2.4992 -2.4993 v 2.4992 2.4992 h -2.4991 -2.4993 v 2.4993 2.4991 h 7.4977 7.4976 z m -39.9874,-4.9985 v -2.4992 h -2.4992 -2.4992 v 2.4992 2.4992 h 2.4992 2.4992 z m 19.9937,-4.9984 v -2.4992 h -2.4992 -2.4993 v -7.4977 -7.4976 h 2.4993 2.4992 v 2.4992 2.4993 h 2.4992 2.4992 v 4.9984 4.9984 h 2.4993 2.4991 v -4.9984 -4.9984 h -2.4991 -2.4993 v -4.9985 -4.9984 h 2.4993 2.4991 v -2.4992 -2.4992 h 2.4993 2.4992 v -2.4992 -2.4993 h 2.4991 2.4993 v -2.4991 -2.4993 h -2.4993 -2.4991 v 2.4993 2.4991 h -2.4992 -2.4993 v 2.4993 2.4992 h -2.4991 -2.4993 v 2.4992 2.4992 h -4.9984 -4.9985 v -2.4992 -2.4992 h 2.4993 2.4992 v -2.4992 -2.4993 h 2.4992 2.4992 v -2.4991 -2.4993 h 2.4993 2.4991 v -2.4992 -2.4991 h -2.4991 -2.4993 v 2.4991 2.4992 h -2.4992 -2.4992 v 2.4993 2.4991 h -2.4992 -2.4993 v 2.4993 2.4992 h -2.4991 -2.4992 v -2.4992 -2.4993 h -2.4993 -2.4991 v 2.4993 2.4992 h -2.4993 -2.4992 v -2.4992 -2.4993 h -2.4992 -2.4992 v 2.4993 2.4992 h 2.4992 2.4992 v 2.4992 2.4992 h 2.4992 2.4993 v -2.4992 -2.4992 h 2.4991 2.4993 v 4.9984 4.9984 h -4.9984 -4.9985 v 2.4992 2.4993 h 4.9985 4.9984 v 4.9984 4.9984 h 2.4992 2.4991 v 2.4992 2.4992 h 2.4993 2.4992 z m 69.9779,-9.9969 v -7.4976 h -7.4977 -7.4976 v 7.4976 7.4977 h 7.4976 7.4977 z m -9.9968,0 v -2.4991 h 2.4991 2.4993 v 2.4991 2.4993 h -2.4993 -2.4991 z m -19.9938,-4.9984 v -2.4992 h -4.9984 -4.9983 v 2.4992 2.4993 h 4.9983 4.9984 z m 0,-24.9921 v -2.4991 h -4.9984 -4.9983 v 2.4991 2.4992 h 4.9983 4.9984 z m -59.981,-4.9984 v -2.4992 h 2.4992 2.4993 v -2.4992 -2.4992 h 2.4991 2.4993 v -4.99841 -4.9985 h -2.4993 -2.4991 v -4.9984 -4.9984 h -7.4977 -7.4976 v 7.4977 7.4976 h 2.4992 2.4992 v 2.49911 2.4993 h -4.9984 -4.9985 v 2.4992 2.4992 h 4.9985 4.9984 v 2.4992 2.4993 h 2.4992 2.4992 z m -4.9984,-4.9984 v -2.4992 h 2.4992 2.4992 v 2.4992 2.4992 h -2.4992 -2.4992 z m 44.9858,0 v -2.4992 h 2.4992 2.4992 v 2.4992 2.4992 h 12.4961 12.496 v -2.4992 -2.4992 h -2.4992 -2.4992 v -2.4993 -2.49911 h 2.4992 2.4992 v -2.4992 -2.4993 h 2.4993 2.4991 v 2.4993 2.4992 h 2.4992 2.4993 v 2.49911 2.4993 h 2.4991 2.4993 v -2.4993 -2.49911 h 2.4992 2.4992 v -9.9969 -9.99686 h 2.4992 2.4992 v -2.49917 -2.49918 h -2.4992 -2.4992 v -2.49925 -2.4992 h -2.4992 -2.4992 v 14.99526 14.9953 h -2.4993 -2.4991 v -4.9985 -4.9984 h -2.4993 -2.4992 v -2.4992 -2.4992 h 2.4992 2.4993 v -2.4992 -2.49926 h -2.4993 -2.4992 v 2.49926 2.4992 h -2.4991 -2.4993 v -2.4992 -2.49926 h -2.4992 -2.4992 v -2.49917 -2.49918 h -2.4992 -2.4993 v 2.49918 2.49917 h 2.4993 2.4992 v 2.49926 2.4992 h -2.4992 -2.4993 v 4.9984 4.9984 h 2.4993 2.4992 v 2.4993 2.4992 h -7.4976 -7.4976 v 2.49911 2.4993 h -2.4993 -2.4992 v -4.99841 -4.9985 h -2.4992 -2.4992 v 2.4993 2.4992 h -2.4993 -2.4991 v 4.99841 4.9984 h 2.4991 2.4993 z m 24.9921,-17.49451 v -4.9984 h 2.4992 2.4992 v 4.9984 4.9984 h -2.4992 -2.4992 z m -9.9969,2.4993 v -2.4993 h -2.4992 -2.4991 v 2.4993 2.4991 h 2.4991 2.4992 z m -94.9699,-4.9985 v -2.4992 h -2.4993 -2.4992 v 2.4992 2.4992 h 2.4992 2.4993 z m 44.9858,-9.99683 v -2.49918 h 2.4991 2.4993 v -4.99845 -4.99843 h -4.9984 -4.9985 v -2.4992 -2.49921 h 2.4992 2.4993 v -2.49921 -2.49921 h -2.4993 -2.4992 v 2.49921 2.49921 h -4.9984 -4.9984 v 2.49921 2.4992 h -2.4992 -2.4993 v -2.4992 -2.49921 h -2.4991 -2.4993 v 2.49921 2.4992 h 2.4993 2.4991 v 2.49922 2.49921 h -2.4991 -2.4993 v 2.4992 2.49925 h 2.4993 2.4991 v -2.49925 -2.4992 h 2.4993 2.4992 v 2.4992 2.49925 h 2.4992 2.4992 v 2.49918 2.49917 h 4.9984 4.9985 z m -9.9969,-4.99843 v -2.4992 h 2.4992 2.4992 v 2.4992 2.49925 h -2.4992 -2.4992 z m 64.9794,-4.99841 v -2.49922 h -4.9984 -4.9983 v 2.49922 2.49921 h 4.9983 4.9984 z m -4.9984,-9.99684 v -2.49921 h -2.4992 -2.4991 v 2.49921 2.49921 h 2.4991 2.4992 z m -44.9857,-9.99684 v -2.49922 h -2.4993 -2.4991 v 2.49922 2.49921 h 2.4991 2.4993 z m 39.9874,-2.49922 v -4.99841 h -2.4993 -2.4992 v 4.99841 4.99843 h 2.4992 2.4993 z m -14.9953,-12.49605 v -2.49921 h -2.4992 -2.4993 v 2.49921 2.49922 h 2.4993 2.4992 z m -24.9921,-9.99684 v -2.4992 h -2.4993 -2.4991 v 2.4992 2.49921 h 2.4991 2.4993 z m 59.981,154.95107 v -2.4992 h 2.4993 2.4991 v -2.4992 -2.4993 h 4.9985 4.9984 v 4.9985 4.9984 h -7.4977 -7.4976 z m 19.9937,0 v -2.4992 h 2.4992 2.4992 v 2.4992 2.4992 h -2.4992 -2.4992 z m 9.9968,0 v -2.4992 h 4.9984 4.9985 v 2.4992 2.4992 h -4.9985 -4.9984 z m -149.9526,-39.9873 v -2.4993 h 2.4992 2.4992 v -2.4992 -2.4992 h -2.4992 -2.4992 v -2.4992 -2.4993 h 2.4992 2.4992 v -4.9984 -4.9983 h -2.4992 -2.4992 v -4.9985 -4.9984 h 2.4992 2.4992 v 2.4992 2.4992 h 2.4992 2.4993 v -2.4992 -2.4992 h 2.4992 2.4992 v -2.4993 -2.49911 h 2.4992 2.4992 v 2.49911 2.4993 h -2.4992 -2.4992 v 2.4992 2.4992 h 4.9984 4.9984 v 2.4992 2.4993 h -4.9984 -4.9984 v 2.4991 2.4992 h 4.9984 4.9984 v 4.9984 4.9985 h -4.9984 -4.9984 v 2.4992 2.4992 h -4.9984 -4.9985 v 2.4993 2.4991 h -2.4992 -2.4992 z m 14.9953,-14.9953 v -2.4993 h -2.4992 -2.4992 v 2.4993 2.4991 h 2.4992 2.4992 z m 0,-9.9969 v -2.4992 h -2.4992 -2.4992 v 2.4992 2.4993 h 2.4992 2.4992 z m 54.9826,-39.98737 v -2.4992 h 2.4992 2.4992 v 2.4992 2.49925 h -2.4992 -2.4992 z m 9.9968,0 v -2.4992 h 2.4993 2.4992 v -2.49921 -2.49922 h -2.4992 -2.4993 v -2.4992 -2.49921 h -4.9984 -4.9984 v -7.49764 -7.49763 h 2.4992 2.4992 v 4.99843 4.99842 h 2.4993 2.4991 v 2.49921 2.49921 h 2.4993 2.4992 v 2.49921 2.4992 h 2.4991 2.4993 v 4.99843 4.99845 h -4.9984 -4.9985 z m -79.9747,-12.49604 v -4.99842 h 2.4992 2.4992 v 4.99842 4.99841 h -2.4992 -2.4992 z m 0,-27.49132 V 913.3931 h 17.4945 17.4944 v 17.49447 17.49448 h -17.4944 -17.4945 z m 29.668,0 V 918.714 h -12.1735 -12.1736 v 12.17357 12.17358 h 12.1736 12.1735 z m -19.6711,0 v -7.49763 h 7.4976 7.4976 v 7.49763 7.49764 h -7.4976 -7.4976 z m 119.9621,0 V 913.3931 h 17.4944 17.4945 v 17.49447 17.49448 h -17.4945 -17.4944 z m 29.668,0 V 918.714 h -12.1736 -12.1735 v 12.17357 12.17358 h 12.1735 12.1736 z m -19.6712,0 v -7.49763 h 7.4976 7.4976 v 7.49763 7.49764 h -7.4976 -7.4976 z m -24.9921,4.99842 v -2.4992 h -2.4992 -2.4993 v -4.99843 -4.99842 h 2.4993 2.4992 v -2.49921 -2.4992 h -4.9985 -4.9984 v -2.49922 -2.49921 h 7.4977 7.4976 v 2.49921 2.49922 h 2.4993 2.4991 v 2.4992 2.49921 h -2.4991 -2.4993 v 7.49763 7.49764 h -2.4992 -2.4992 z m -19.9937,-9.99683 v -2.49922 h 4.9985 4.9983 v 2.49922 2.4992 h -4.9983 -4.9985 z m 0,-9.99685 v -2.49921 h 2.4992 2.4993 v 2.49921 2.49922 h -2.4993 -2.4992 z"
       id="path1-7" /></g></svg>
